<?xml version="1.0" encoding="utf-8"?>
<!-- Generator: Adobe Illustrator 27.8.1, SVG Export Plug-In . SVG Version: 6.00 Build 0)  -->
<svg version="1.1" id="Layer_1" xmlns="http://www.w3.org/2000/svg" xmlns:xlink="http://www.w3.org/1999/xlink" x="0px" y="0px"
	 viewBox="0 0 1200 1200" style="enable-background:new 0 0 1200 1200;" xml:space="preserve">
<style type="text/css">
	.st0{fill:#FFFFFF;}
</style>
<g>
	<rect x="610.9" y="447.2" class="st0" width="72.7" height="34.5"/>
	<rect x="610.9" y="324.9" class="st0" width="72.7" height="34.5"/>
	<rect x="610.9" y="508.4" class="st0" width="72.7" height="34.5"/>
	<rect x="610.9" y="386" class="st0" width="72.7" height="34.5"/>
	<rect x="610.9" y="267.2" class="st0" width="72.7" height="31"/>
	<rect x="802.8" y="404.6" class="st0" width="25.8" height="133.8"/>
	<path class="st0" d="M565.7,111.4c-8-5.7-18.8-5.7-26.9,0L356.9,240.5h390.7L565.7,111.4z"/>
	<rect x="610.9" y="569.6" class="st0" width="72.7" height="34.5"/>
	<rect x="610.9" y="630.7" class="st0" width="72.7" height="34.5"/>
	<rect x="766.8" y="863" class="st0" width="48.7" height="229.8"/>
	<path class="st0" d="M890.1,449.8h-34.8v43.5h34.8c16.3,0,29.5,13.2,29.5,29.5v570h43.5v-570C963.1,482.5,930.3,449.8,890.1,449.8z
		"/>
	<path class="st0" d="M776.1,267.2h-65.9l0,447.7c0,7.4-6,13.3-13.3,13.3c-7.4,0-13.3-6-13.3-13.3v-22.9h-72.7v22.9
		c0,7.4-6,13.3-13.3,13.3c-7.4,0-13.3-6-13.3-13.3V267.2H328.5l0,569.2h447.7V267.2z"/>
	<path class="st0" d="M582,963.9L681.3,863H423.2l99.3,100.9C538.4,979.9,566.2,979.9,582,963.9z"/>
	<rect x="289.2" y="863" class="st0" width="48.7" height="229.8"/>
	<path d="M1029.3,1092.8L1029.3,1092.8l-39.6,0v-570c0-54.9-44.7-99.6-99.7-99.6h-34.8v-31.8c0-7.4-6-13.3-13.3-13.3h-39.1V253.9
		c0-0.4-0.2-0.7-0.2-1.1c-0.1-0.9-0.3-1.8-0.6-2.7c-0.2-0.8-0.5-1.6-0.9-2.3c-0.4-0.8-0.8-1.4-1.4-2.1c-0.6-0.8-1.2-1.4-1.9-2
		c-0.3-0.2-0.4-0.6-0.8-0.8l-216-153.2c-17.3-12.3-40.5-12.3-57.8,0L307.4,243c-0.3,0.2-0.5,0.6-0.8,0.8c-0.7,0.6-1.3,1.3-1.9,2
		c-0.5,0.7-1,1.3-1.4,2.1s-0.6,1.5-0.9,2.3c-0.3,0.9-0.5,1.7-0.6,2.7c0,0.4-0.2,0.7-0.2,1.1v582.5h-25.9c-7.4,0-13.3,6-13.3,13.3
		v243.1h-91.8c-7.4,0-13.3,6-13.3,13.3s6,13.3,13.3,13.3l858.7,0c7.4,0,13.3-6,13.3-13.3C1042.6,1098.7,1036.7,1092.8,1029.3,1092.8
		z M802.8,404.6h25.8v133.8h-25.8V404.6z M538.8,111.4c8.1-5.7,18.9-5.7,26.9,0l181.9,129.1H356.9L538.8,111.4z M610.9,604.1v-34.5
		h72.7v34.5H610.9z M683.6,630.7v34.5h-72.7v-34.5H683.6z M610.9,542.9v-34.5h72.7v34.5H610.9z M610.9,481.7v-34.5h72.7v34.5H610.9z
		 M610.9,420.5V386h72.7v34.5H610.9z M610.9,359.4v-34.5h72.7v34.5H610.9z M610.9,298.2v-31h72.7v31H610.9z M328.5,267.2h255.8
		v447.7c0,7.4,6,13.3,13.3,13.3c7.4,0,13.3-6,13.3-13.3v-22.9h72.7v22.9c0,7.4,6,13.3,13.3,13.3c7.4,0,13.3-6,13.3-13.3l0-447.7
		h65.9v569.2H328.4L328.5,267.2z M681.3,863L582,963.9c-15.8,16.1-43.7,16.1-59.5,0L423.2,863H681.3z M337.8,1092.8h-48.7V863h48.7
		V1092.8z M364.5,1092.8V863h21.3l117.7,119.6c13,13.2,30.3,20.4,48.8,20.4c18.5,0,35.8-7.3,48.8-20.4L718.8,863h21.3l0,229.8H364.5
		z M815.4,1092.8h-48.7V863h48.7V1092.8z M842.1,1092.8V849.6c0-7.4-6-13.3-13.3-13.3h-25.9l0-271.2H842c7.4,0,13.3-6,13.3-13.3V520
		h34.8c1.6,0,2.9,1.3,2.9,2.9l0,570H842.1z M963.1,1092.8h-43.5v-570c0-16.3-13.3-29.5-29.5-29.5h-34.8v-43.5h34.8
		c40.2,0,73,32.7,73,72.9V1092.8z"/>
</g>
</svg>
