<?xml version="1.0" encoding="utf-8"?>
<!-- Generator: Adobe Illustrator 27.8.1, SVG Export Plug-In . SVG Version: 6.00 Build 0)  -->
<svg version="1.1" id="Layer_1" xmlns="http://www.w3.org/2000/svg" xmlns:xlink="http://www.w3.org/1999/xlink" x="0px" y="0px"
	 viewBox="0 0 1200 1200" style="enable-background:new 0 0 1200 1200;" xml:space="preserve">
<style type="text/css">
	.st0{fill:#FFFFFF;}
</style>
<g>
	<path class="st0" d="M996,328.8L768.7,101.5v161c0,14.9,5.9,29.2,16.5,39.8c10.5,10.5,24.8,16.5,39.8,16.5h112.5v37.5H825
		c-24.9,0-48.7-9.9-66.3-27.5c-17.6-17.6-27.5-41.4-27.5-66.3V76.4c-4-0.9-8.2-1.4-12.3-1.4H243.7c-14.9,0-29.2,5.9-39.8,16.5
		c-10.5,10.5-16.5,24.8-16.5,39.8v937.5c0,14.9,5.9,29.2,16.5,39.8c10.5,10.5,24.8,16.5,39.8,16.5h712.5c14.9,0,29.2-5.9,39.8-16.5
		c10.5-10.5,16.5-24.8,16.5-39.8l0-700.2C1012.5,353.6,1006.6,339.3,996,328.8z M725.8,511.7L857,643c3.5,3.5,5.5,8.3,5.5,13.3
		s-2,9.7-5.5,13.3L725.8,800.8l-26.5-26.5l118-118l-118-118L725.8,511.7z M337.5,656.2c0-4.5,1.6-8.8,4.5-12.2l112.5-131.2
		l28.5,24.4l-102,119l102,119l-28.5,24.4L342,668.5v0C339.1,665,337.5,660.7,337.5,656.2z M562.5,412.5V375H675v37.5H562.5z
		 M673.8,512.8l-112.5,300l-35.1-13.2l112.5-300L673.8,512.8z M412.5,300v-37.5H675V300H412.5z M506.2,375v37.5H375V375H506.2z
		 M468.7,900H750v37.5H468.7V900z M468.7,150H675v37.5H468.7V150z M356.2,150h56.2v37.5h-56.2V150z M262.5,262.5h93.8V300h-93.8
		V262.5z M262.5,375h56.2v37.5h-56.2V375z M375,1050h-93.8v-37.5H375V1050z M412.5,937.5H281.2V900h131.2V937.5z M618.7,1050H431.2
		v-37.5h187.5V1050z M918.7,1050H675v-37.5h243.8V1050z M918.7,937.5H806.2V900h112.5V937.5z"/>
	<path d="M785.2,65c-17.5-17.6-41.4-27.5-66.3-27.5H243.7c-24.9,0-48.7,9.9-66.3,27.5c-17.6,17.6-27.5,41.4-27.5,66.3v937.5
		c0,24.9,9.9,48.7,27.5,66.3c17.6,17.6,41.4,27.5,66.3,27.5h712.5c24.9,0,48.7-9.9,66.3-27.5c17.6-17.6,27.5-41.4,27.5-66.3V368.6
		c0.1-24.9-9.8-48.8-27.5-66.3L785.2,65z M996,1108.5c-10.5,10.5-24.8,16.5-39.8,16.5H243.7c-14.9,0-29.2-5.9-39.8-16.5
		c-10.5-10.5-16.5-24.8-16.5-39.8V131.3c0-14.9,5.9-29.2,16.5-39.8C214.5,81,228.8,75,243.7,75h475.2c4.1,0,8.3,0.5,12.3,1.4v186.1
		c0,24.9,9.9,48.7,27.5,66.3c17.6,17.6,41.4,27.5,66.3,27.5h112.5v-37.5H825c-14.9,0-29.2-5.9-39.8-16.5
		c-10.5-10.5-16.5-24.8-16.5-39.8v-161L996,328.8c10.6,10.5,16.5,24.8,16.5,39.8l0,700.2C1012.5,1083.7,1006.5,1098,996,1108.5z"/>
	<rect x="468.7" y="150" width="206.2" height="37.5"/>
	<rect x="356.2" y="150" width="56.2" height="37.5"/>
	<rect x="412.5" y="262.5" width="262.5" height="37.5"/>
	<rect x="262.5" y="262.5" width="93.8" height="37.5"/>
	<rect x="562.5" y="375" width="112.5" height="37.5"/>
	<rect x="375" y="375" width="131.2" height="37.5"/>
	<rect x="262.5" y="375" width="56.2" height="37.5"/>
	<path d="M454.5,799.7l28.5-24.4l-102-119l102-119l-28.5-24.4L342,644c-2.9,3.4-4.5,7.7-4.5,12.2s1.6,8.8,4.5,12.2v0L454.5,799.7z"
		/>
	<path d="M699.2,774.2l26.5,26.5L857,669.5c3.5-3.5,5.5-8.3,5.5-13.3s-2-9.7-5.5-13.3L725.8,511.7l-26.5,26.5l118,118L699.2,774.2z"
		/>
	<rect x="439.8" y="637.5" transform="matrix(0.3511 -0.9363 0.9363 0.3511 -225.1457 987.6229)" width="320.4" height="37.5"/>
	<rect x="806.2" y="900" width="112.5" height="37.5"/>
	<rect x="468.7" y="900" width="281.2" height="37.5"/>
	<rect x="281.2" y="900" width="131.2" height="37.5"/>
	<rect x="675" y="1012.5" width="243.8" height="37.5"/>
	<rect x="431.2" y="1012.5" width="187.5" height="37.5"/>
	<rect x="281.2" y="1012.5" width="93.8" height="37.5"/>
</g>
</svg>
