<?xml version="1.0" encoding="utf-8"?>
<!-- Generator: Adobe Illustrator 27.8.1, SVG Export Plug-In . SVG Version: 6.00 Build 0)  -->
<svg version="1.1" id="Layer_1" xmlns="http://www.w3.org/2000/svg" xmlns:xlink="http://www.w3.org/1999/xlink" x="0px" y="0px"
	 viewBox="0 0 1200 1200" style="enable-background:new 0 0 1200 1200;" xml:space="preserve">
<style type="text/css">
	.st0{fill:#FFFFFF;}
</style>
<g>
	<polygon class="st0" points="1108.7,381.4 1108.7,402.9 1129,402.9 	"/>
	<path class="st0" d="M764.9,768.8c-11.1,5.2-22.6,9.2-34.6,11.9c-41.7,9-84.2,13.3-126.9,12.8c-42.7,0.5-85.2-3.8-126.9-12.8
		c-11.9-2.7-23.5-6.7-34.5-11.9v72.8c4.5,2.6,9.1,5.1,14.1,7.3c0.4,0.1,0.8,0.3,1.1,0.5c44.2,18.1,91.7,26.9,139.5,25.6
		c51.9,0.8,103.5-8.1,152.3-26.1c0.6-0.3,1.1-0.5,1.7-0.7c4.8-2.1,9.6-4.4,14.2-6.9L764.9,768.8L764.9,768.8z M600.3,849.8
		c-23.4-0.7-46.7-2.5-69.9-5.6c-20-2.5-39.8-6.5-59.3-11.8c-7-2.2-11-9.5-9-16.5c2-7.1,9.3-11.2,16.4-9.3c18.2,5,36.7,8.7,55.5,11.1
		c22.3,3,44.7,4.8,67.1,5.4l0,0c7.4,0.2,13.3,6.4,13.1,13.8C613.9,844.2,607.7,850.1,600.3,849.8z"/>
	<path class="st0" d="M482.9,754.5L482.9,754.5c39.6,8.5,80,12.6,120.5,12c40.5,0.6,80.9-3.5,120.5-12c25.3-6.1,40.9-12.2,40.9-16.8
		c0,0-0.8-0.6-2.3-1.8v0c-4.2-3-8.7-5.4-13.5-7.2c-35.2,12-71.8,19.5-108.9,22.3c-0.8,0.1-1.6,0.2-2.4,0.2h-0.3
		c-13.4,1.1-27,1.6-40.7,1.6c-13.2,0-26.5-0.6-39.7-1.6l-0.1,0c-0.8,0-1.7-0.1-2.5-0.2c-33.5-2.5-66.4-9.8-97.8-21.8
		c-4.2,1.7-8.1,3.8-11.8,6.5c-0.2,0.1-0.4,0.3-0.6,0.4c-1.4,1.2-2.2,1.4-2.2,1.6C441.9,742.4,457.6,748.5,482.9,754.5z"/>
	<path class="st0" d="M482.9,605.4c39.6,8.5,80,12.5,120.5,12c40.5,0.6,80.9-3.5,120.5-12c25.3-6.1,40.9-12.2,40.9-16.8
		c0-4.6-15.7-10.7-40.9-16.8v0c-35.2-7.6-71.1-11.6-107.1-11.8l0,20.2c0.1,3.7-1.3,7.2-3.8,9.8s-6,4.1-9.7,4.1s-7.1-1.5-9.7-4.1
		s-3.9-6.1-3.8-9.8V560c-36,0.2-71.9,4.2-107.1,11.9c-25.3,6.1-40.9,12.1-40.9,16.8S457.6,599.3,482.9,605.4z"/>
	<path class="st0" d="M763.5,881.2L763.5,881.2c-2.6-2.3-5.6-4.2-8.7-5.6c-50.7,18-104.2,27-158,26.3c-49.7,1-99.2-7.7-145.5-25.8
		l0,0c-2.8,1.4-5.5,3.1-7.8,5.2c-0.9,0.8-1.3,0.6-1.3,0.8c0,4.6,15.7,10.7,40.9,16.9c39.6,8.4,80,12.5,120.5,11.9
		c40.5,0.6,80.9-3.4,120.5-11.9c25.3-6.1,40.9-12.2,40.9-16.9C765,882,764.4,882,763.5,881.2z"/>
	<path class="st0" d="M603.4,937.9c-42.7,0.5-85.2-3.8-126.9-12.8c-11.9-2.7-23.5-6.7-34.5-11.9V986c40.8,23.7,98,33.5,154.7,33.5
		c66.3,0,131.1-13.3,168.2-33.7v-72.6c-11.1,5.2-22.6,9.1-34.6,11.9C688.6,934.1,646,938.4,603.4,937.9z M615.5,993.3
		c-0.6,7.3-6.9,12.8-14.2,12.4c-12-0.9-24.2-2.3-36.3-3.9s-23.8-3.4-34.6-5.5c-3.6-0.6-6.8-2.6-8.8-5.5c-2.1-3-2.9-6.7-2.2-10.2
		c0.7-3.6,2.7-6.7,5.7-8.7c3-2,6.7-2.7,10.2-2c10.6,2,21.7,3.8,33.1,5.3c10.9,1.4,22.5,2.7,35,3.7l0,0
		C610.6,979.6,616,986,615.5,993.3z"/>
	<path class="st0" d="M275.2,429.8c-3.6,0-7-1.4-9.5-3.9c-2.5-2.5-4-6-4-9.5v-51.5l-201.6,0v318.2h266.7l0-253.3H275.2z M88.5,382.4
		h147.9c7.5,0,13.5,6,13.5,13.5c0,7.5-6,13.5-13.5,13.5l-147.9,0v0c-7.5,0-13.5-6-13.5-13.5C75,388.4,81,382.4,88.5,382.4z
		 M78.7,428.8c2.6-2.5,6.2-3.9,9.8-3.8h147.9c3.7-0.1,7.2,1.3,9.8,3.8s4.1,6,4.1,9.7s-1.5,7.1-4.1,9.7c-2.6,2.6-6.1,3.9-9.8,3.8
		H88.5c-3.6,0.1-7.2-1.3-9.8-3.8c-2.6-2.5-4.1-6-4.1-9.7S76,431.3,78.7,428.8z M298.4,665.1l-210,0v0c-7.5,0-13.5-6-13.5-13.5
		c0-7.5,6-13.5,13.5-13.5h210c7.5,0,13.5,6,13.5,13.5S305.9,665.1,298.4,665.1z M298.4,622.5l-210,0v0c-7.5,0-13.5-6-13.5-13.5
		s6-13.5,13.5-13.5h210c7.5,0,13.5,6,13.5,13.5S305.9,622.5,298.4,622.5z M75.4,566.4c0-7.3,5.8-13.3,13.1-13.5h210
		c7.3,0.2,13.1,6.2,13.1,13.5c0,7.3-5.8,13.3-13.1,13.5l-210,0.1v-0.1C81.2,579.7,75.4,573.7,75.4,566.4z M298.4,537.3l-210,0v0
		c-7.5,0-13.5-6-13.5-13.5c0-7.5,6-13.5,13.5-13.5h210c7.5,0,13.5,6,13.5,13.5C311.9,531.2,305.9,537.3,298.4,537.3z M298.4,494.6
		l-210,0.1v-0.1c-7.5,0-13.5-6-13.5-13.5c0-7.4,6-13.5,13.5-13.5h210c7.5,0,13.5,6,13.5,13.5C311.9,488.6,305.9,494.6,298.4,494.6z"
		/>
	<path class="st0" d="M1095.2,429.8c-3.6,0-7-1.4-9.6-3.9c-2.5-2.5-3.9-6-3.9-9.5v-51.5l-201.7,0v318.2h266.7l0-253.3H1095.2z
		 M908.4,382.4h147.9c7.5,0,13.5,6,13.5,13.5c0,7.5-6,13.5-13.5,13.5l-147.9,0v0c-7.5,0-13.5-6-13.5-13.5
		C894.9,388.4,900.9,382.4,908.4,382.4z M1070.2,438.5c0,3.7-1.5,7.1-4.1,9.7c-2.6,2.6-6.1,3.9-9.8,3.8H908.4
		c-7.3-0.2-13.1-6.2-13.1-13.5c0-7.3,5.8-13.3,13.1-13.5h147.9c3.7-0.1,7.2,1.3,9.8,3.8C1068.7,431.3,1070.2,434.9,1070.2,438.5z
		 M1118.3,665.2l-210,0v0c-7.5,0-13.5-6-13.5-13.5s6-13.5,13.5-13.5h210c7.5,0,13.5,6,13.5,13.5S1125.8,665.2,1118.3,665.2z
		 M1118.3,622.5l-210,0v0c-7.5,0-13.5-6-13.5-13.5s6-13.5,13.5-13.5h210c7.5,0,13.5,6,13.5,13.5S1125.8,622.5,1118.3,622.5z
		 M895.3,566.4c0-7.3,5.8-13.3,13.1-13.5h210c7.3,0.2,13.1,6.2,13.1,13.5c0,7.3-5.8,13.3-13.1,13.5l-210,0.1v-0.1
		C901.1,579.7,895.3,573.7,895.3,566.4z M1118.3,537.3l-210,0v0c-7.5,0-13.5-6-13.5-13.5c0-7.5,6-13.5,13.5-13.5h210
		c7.5,0,13.5,6,13.5,13.5C1131.8,531.2,1125.8,537.3,1118.3,537.3z M1118.3,494.6l-210,0.1v-0.1c-7.5,0-13.5-6-13.5-13.5
		c0-7.4,6-13.5,13.5-13.5h210c7.5,0,13.5,6,13.5,13.5C1131.8,488.6,1125.8,494.6,1118.3,494.6z"/>
	<polygon class="st0" points="699.9,267.7 699.9,246.1 611.1,246.1 623.2,267.7 	"/>
	<polygon class="st0" points="288.7,381.5 288.7,402.9 309.1,402.9 	"/>
	<path class="st0" d="M727.2,294.7l-112,0c-5.3,0-10.1-3.1-12.3-8l-21.8-39l-4.7-8.5l-6.2-11.2h-90.8v186.7h247.7V294.7z"/>
	<path class="st0" d="M462,702.5c30.2,12.2,62.2,19.5,94.7,21.8h81.2c36-2.5,71.5-9.9,105.5-22.1c0.5-0.3,1-0.5,1.6-0.7
		c6.8-2.7,13.5-5.8,19.9-9.2l0-72.7c-11.1,5.2-22.7,9.2-34.6,11.9c-41.7,9-84.2,13.3-126.8,12.8c-42.7,0.5-85.2-3.8-126.9-12.8
		c-11.9-2.7-23.5-6.7-34.5-11.9v72.8c6.4,3.8,13,7,19.8,9.9H462z M462.1,666.8c2-7.1,9.3-11.2,16.4-9.4c18.2,5,36.7,8.7,55.5,11.1
		c22.3,3,44.7,4.8,67.1,5.4l0,0c7.4,0.3,13.2,6.4,13.1,13.8c-0.1,3.6-1.6,6.9-4.2,9.4c-2.6,2.4-6.1,3.8-9.7,3.7
		c-23.4-0.7-46.7-2.5-69.9-5.6c-20-2.5-39.8-6.5-59.3-11.8C464,681.2,460,673.8,462.1,666.8z"/>
	<path d="M363.1,882.9l-168.8,0V764.3c0-7.5-6-13.5-13.5-13.5s-13.5,6-13.5,13.5l0,132c0,7.5,6,13.5,13.5,13.5h182.4
		c7.4,0,13.5-6,13.5-13.5C376.6,889,370.6,882.9,363.1,882.9z"/>
	<path d="M347,703.3c3.8-4.5,5.7-10.3,5.3-16.2l0-270.7h0v-2h0V414l0-1v-0.7l0-0.1v-0.5l0-0.2v-0.5h0l-0.1-0.1v-0.5l0-0.2V410h0
		v-0.3l-0.1-0.2l-0.3-0.4l0,0v-0.2l-0.1-0.2l-0.1-0.2l-0.2-0.2v-0.1l-0.2-0.2l-0.4-0.5l-0.2-0.2l-60.6-64c-2.6-3.3-6.5-5.2-10.7-5.2
		H56.1l0,0c-5.5,0-10.8,2-15,5.6v0c-0.4,0.4-0.8,0.7-1.1,1.1c-4.3,4.3-6.8,10.1-6.8,16.1v326.4c0,6,2.4,11.9,6.8,16.1
		c4.3,4.3,10.1,6.7,16.1,6.7h274.7C336.9,710,342.7,707.6,347,703.3z M288.7,381.5l20.4,21.5h-20.4V381.5z M60.1,683.1V364.9
		l201.6,0v51.5c0,3.6,1.5,7,4,9.5c2.5,2.5,6,3.9,9.5,3.9h51.6l0,253.3H60.1z"/>
	<path d="M298.4,467.7h-210c-7.5,0-13.5,6-13.5,13.5c0,7.5,6,13.5,13.5,13.5v0.1l210-0.1c7.5,0,13.5-6,13.5-13.5
		C311.9,473.7,305.9,467.7,298.4,467.7z"/>
	<path d="M298.4,510.3h-210c-7.5,0-13.5,6-13.5,13.5c0,7.5,6,13.5,13.5,13.5v0l210,0c7.5,0,13.5-6,13.5-13.5
		C311.9,516.3,305.9,510.3,298.4,510.3z"/>
	<path d="M88.5,452h147.9c3.7,0.1,7.2-1.3,9.8-3.8c2.6-2.5,4.1-6,4.1-9.7s-1.5-7.2-4.1-9.7s-6.1-3.9-9.8-3.8H88.5
		c-3.6-0.1-7.2,1.3-9.8,3.8s-4.1,6-4.1,9.7s1.5,7.1,4.1,9.7C81.3,450.7,84.9,452.1,88.5,452z"/>
	<path d="M466,441.7h274.6c3.6,0,7-1.4,9.5-3.9c2.5-2.5,3.9-6,3.9-9.5V281.2c0-3.6-1.4-7-3.9-9.5c-2.5-2.5-6-3.9-9.5-3.9h-13.9
		v-35.1c0-3.6-1.4-7-3.9-9.5s-6-3.9-9.6-3.9H596.1l-5.6-10.2c-2.2-4.8-7-7.9-12.3-7.9H466c-3.6,0-7,1.4-9.5,3.9
		c-2.5,2.5-3.9,6-3.9,9.5v213.7c0,3.6,1.4,7,3.9,9.5C459.1,440.3,462.5,441.7,466,441.7z M699.9,246.1l0,21.6l-76.7,0l-12-21.7
		H699.9z M479.5,228h90.8l6.2,11.2l4.7,8.5l21.8,39c2.2,4.8,7,8,12.3,8l112,0v120H479.5V228z"/>
	<path d="M88.5,409.4L88.5,409.4h147.9c7.5,0,13.5-6,13.5-13.5c0-7.5-6-13.5-13.5-13.5H88.5c-7.5,0-13.5,6-13.5,13.5
		C75,403.3,81,409.4,88.5,409.4z"/>
	<path d="M298.4,638.2h-210c-7.5,0-13.5,6-13.5,13.5c0,7.5,6,13.5,13.5,13.5v0l210,0c7.5,0,13.5-6,13.5-13.5
		S305.9,638.2,298.4,638.2z"/>
	<path d="M298.4,579.9c7.3-0.2,13.1-6.2,13.1-13.5c0-7.3-5.8-13.3-13.1-13.5h-210c-7.3,0.2-13.1,6.2-13.1,13.5
		c0,7.3,5.8,13.3,13.1,13.5v0.1L298.4,579.9z"/>
	<path d="M298.4,595.5h-210c-7.5,0-13.5,6-13.5,13.5s6,13.5,13.5,13.5v0l210,0c7.5,0,13.5-6,13.5-13.5S305.9,595.5,298.4,595.5z"/>
	<path d="M1118.3,579.9c7.3-0.2,13.1-6.2,13.1-13.5c0-7.3-5.8-13.3-13.1-13.5h-210c-7.3,0.2-13.1,6.2-13.1,13.5
		c0,7.3,5.8,13.3,13.1,13.5v0.1L1118.3,579.9z"/>
	<path d="M1118.3,595.5h-210c-7.5,0-13.5,6-13.5,13.5s6,13.5,13.5,13.5v0l210,0c7.5,0,13.5-6,13.5-13.5S1125.8,595.5,1118.3,595.5z"
		/>
	<path d="M1118.3,638.2h-210c-7.5,0-13.5,6-13.5,13.5s6,13.5,13.5,13.5v0l210,0c7.5,0,13.5-6,13.5-13.5S1125.8,638.2,1118.3,638.2z"
		/>
	<path d="M1172.5,416.2v-2l0-0.1v-0.9h0v-0.6l0-0.2V412l0,0v-0.2l-0.1-0.2v-0.7l0-0.1l-0.1,0v-0.2l-0.1-0.2v0l-0.1-0.2v-0.2l0-0.1
		l-0.1-0.2l-0.1-0.2h0l-0.1-0.2l0,0l-0.1-0.2v0l-0.2-0.2h0l-0.3-0.4v-0.1l-0.1-0.2l-0.2-0.2l-0.2-0.2l-0.2-0.2l-60.6-64
		c-2.5-3.3-6.5-5.3-10.7-5.2H876l0,0.1c-6,0-11.9,2.4-16.1,6.8h-0.1c-4.3,4.3-6.7,10-6.8,16.1v326.4c0,6,2.5,11.9,6.8,16.1h0.1
		c4.3,4.3,10,6.7,16.1,6.7h273.8c6.1,0,11.9-2.4,16.2-6.7c4.3-4.3,6.7-10.1,6.7-16.2L1172.5,416.2L1172.5,416.2z M1108.7,381.4
		l20.3,21.5h-20.3V381.4z M880,683.1V364.9l201.7,0v51.5c0,3.6,1.4,7,3.9,9.5c2.5,2.5,6,3.9,9.6,3.9h51.5l0,253.3H880z"/>
	<path d="M1056.2,425H908.4c-7.3,0.2-13.1,6.2-13.1,13.5c0,7.3,5.8,13.3,13.1,13.5h147.9c3.7,0.1,7.2-1.3,9.8-3.8
		c2.6-2.5,4.1-6,4.1-9.7s-1.5-7.2-4.1-9.7C1063.4,426.3,1059.9,424.9,1056.2,425z"/>
	<path d="M1118.3,510.3h-210c-7.5,0-13.5,6-13.5,13.5c0,7.5,6,13.5,13.5,13.5v0l210,0c7.5,0,13.5-6,13.5-13.5
		C1131.8,516.3,1125.8,510.3,1118.3,510.3z"/>
	<path d="M1118.3,467.7h-210c-7.5,0-13.5,6-13.5,13.5c0,7.5,6,13.5,13.5,13.5v0.1l210-0.1c7.5,0,13.5-6,13.5-13.5
		C1131.8,473.7,1125.8,467.7,1118.3,467.7z"/>
	<path d="M601.1,823L601.1,823c-22.5-0.6-44.9-2.4-67.2-5.4c-18.7-2.4-37.3-6.1-55.5-11.1c-7.1-1.9-14.3,2.2-16.4,9.3
		c-2,7,2,14.4,9,16.5c19.5,5.3,39.3,9.3,59.3,11.8c23.2,3.1,46.5,4.9,69.9,5.6c7.4,0.2,13.6-5.6,13.8-13
		C614.4,829.4,608.5,823.2,601.1,823z"/>
	<path d="M441.9,913.2C442,913.2,442,913.2,441.9,913.2L441.9,913.2L441.9,913.2z"/>
	<path d="M471.1,683.3c19.5,5.3,39.3,9.3,59.3,11.8c23.2,3.1,46.5,4.9,69.9,5.6c3.6,0.1,7-1.2,9.7-3.7c2.6-2.5,4.1-5.9,4.2-9.4
		c0.1-7.4-5.7-13.5-13.1-13.8l0,0c-22.5-0.6-44.9-2.4-67.1-5.4c-18.8-2.3-37.3-6-55.5-11.1c-7.1-1.8-14.3,2.3-16.4,9.4
		C460,673.8,464,681.2,471.1,683.3z"/>
	<path d="M603.4,978.8L603.4,978.8c-12.5-0.9-24.1-2.2-35-3.6c-11.4-1.5-22.5-3.3-33.1-5.3c-3.6-0.8-7.2,0-10.2,2
		c-3,2-5.1,5.2-5.7,8.7c-0.7,3.5,0.1,7.2,2.2,10.2c2.1,3,5.2,5,8.8,5.5c10.8,2.1,22.5,3.9,34.6,5.5s24.3,3,36.3,3.9
		c7.3,0.4,13.6-5.1,14.2-12.4C616,986,610.6,979.6,603.4,978.8z"/>
	<path d="M730.2,545.7c-37.3-8.2-75.2-12.4-113.4-12.7v-64.6c0.1-3.7-1.3-7.2-3.8-9.8s-6-4.1-9.7-4.1s-7.1,1.5-9.7,4.1
		s-3.9,6.1-3.8,9.8v64.6l0,0c-38.1,0.3-76.1,4.5-113.4,12.6c-37.7,9.2-61.2,24-61.5,42.5v106.4c0,8.2,4.4,15.8,11.4,19.9v0l1,0.7
		c-0.1,0-0.2,0.1-0.3,0.2c-7.3,5.2-11.8,13.5-12.1,22.4v105.9c0,4,1.1,8,3,11.5c1.6,2.7,3.7,5.2,6.2,7c-5.7,5.1-9.1,12.3-9.3,19.9
		V988c0,4,1.1,8,3,11.5c2,3.5,4.9,6.4,8.3,8.4c45.4,27.1,108.4,38.4,170.3,38.4c71.8,0,142.9-15.2,183.3-38.2
		c7.3-4.1,11.8-11.8,11.8-20.2V882.1c-0.2-7.7-3.6-14.9-9.3-19.9c2.5-1.9,4.6-4.3,6.2-6.9c2-3.6,3.1-7.6,3.1-11.7V737.8
		c-0.4-9.1-5-17.5-12.5-22.7l0.8-0.4c7.3-4.1,11.8-11.8,11.8-20.2V588.1C791.4,569.7,767.9,554.9,730.2,545.7z M482.9,571.9
		c35.2-7.7,71.1-11.7,107.1-11.9v20.2c-0.1,3.7,1.3,7.2,3.8,9.8s6,4.1,9.7,4.1s7.1-1.5,9.7-4.1s3.9-6.1,3.8-9.8l0-20.2
		c36,0.2,71.9,4.2,107.1,11.8v0c25.3,6.1,40.9,12.1,40.9,16.8c0,4.6-15.7,10.7-40.9,16.8c-39.6,8.5-80,12.5-120.5,12
		c-40.5,0.6-80.9-3.4-120.5-12c-25.3-6.1-40.9-12.1-40.9-16.8S457.6,578,482.9,571.9z M441.9,619.7c11.1,5.2,22.6,9.2,34.5,11.9
		c41.7,9,84.2,13.3,126.9,12.8c42.7,0.5,85.2-3.8,126.8-12.8c12-2.7,23.5-6.7,34.6-11.9l0,72.7c-6.5,3.5-13.1,6.6-19.9,9.2
		c-0.6,0.2-1.1,0.4-1.6,0.7c-34,12.2-69.5,19.6-105.5,22.1h-81.2c-32.5-2.3-64.5-9.7-94.7-21.8h-0.2c-6.8-2.9-13.5-6.2-19.8-9.9
		V619.7z M764.9,841.4c-4.6,2.5-9.4,4.8-14.2,6.9c-0.6,0.2-1.1,0.4-1.7,0.7c-48.7,18-100.3,26.9-152.3,26.1
		c-47.8,1.2-95.3-7.5-139.5-25.6c-0.4-0.2-0.8-0.4-1.1-0.5c-4.9-2.2-9.6-4.7-14.1-7.3v-72.8c11.1,5.2,22.6,9.2,34.5,11.9
		c41.7,9,84.2,13.3,126.9,12.8c42.7,0.5,85.2-3.8,126.9-12.8c12-2.7,23.5-6.7,34.6-11.9v0L764.9,841.4z M444.1,736.2
		c0.2-0.1,0.4-0.3,0.6-0.4c3.7-2.7,7.6-4.8,11.8-6.5c31.4,12,64.3,19.3,97.8,21.8c0.8,0.1,1.7,0.2,2.5,0.2l0.1,0
		c13.2,1.1,26.5,1.6,39.7,1.6c13.7,0,27.3-0.6,40.7-1.6h0.3c0.8,0,1.6-0.1,2.4-0.2c37.1-2.7,73.7-10.2,108.9-22.3
		c4.8,1.8,9.4,4.2,13.5,7.2v0c1.5,1.2,2.3,1.7,2.3,1.8c0,4.5-15.7,10.7-40.9,16.8c-39.6,8.5-80,12.5-120.5,12
		c-40.5,0.6-81-3.5-120.5-12v0c-25.3-6.1-40.9-12.1-40.9-16.8C441.9,737.6,442.7,737.3,444.1,736.2z M764.9,985.8
		c-37.1,20.3-101.9,33.7-168.2,33.7c-56.7,0-113.9-9.8-154.7-33.5v-72.8c0,0,0,0,0,0l0,0v0c11.1,5.1,22.6,9.2,34.5,11.9
		c41.7,9,84.2,13.3,126.9,12.8c42.7,0.5,85.2-3.8,126.9-12.8c12-2.8,23.5-6.7,34.6-11.9V985.8z M724,899
		c-39.6,8.4-80,12.4-120.5,11.9c-40.5,0.6-80.9-3.4-120.5-11.9c-25.3-6.1-40.9-12.2-40.9-16.9c0-0.3,0.4-0.1,1.3-0.8
		c2.3-2.1,5-3.8,7.8-5.2l0,0h0c0,0,0,0,0,0l0,0c46.4,18,95.8,26.8,145.5,25.8c53.8,0.7,107.3-8.2,158-26.3c3.1,1.4,6.1,3.3,8.7,5.5
		v0c0.9,0.8,1.5,0.8,1.5,0.9C765,886.8,749.3,892.9,724,899z"/>
	<path d="M1026.1,750.9c-7.5,0-13.5,6-13.5,13.5l0,118.6h-169c-7.4,0-13.5,6-13.5,13.5c0,7.5,6,13.5,13.5,13.5h182.4
		c7.5,0,13.5-6,13.5-13.5v-132C1039.6,756.9,1033.5,750.9,1026.1,750.9z"/>
	<polygon points="451.1,876.1 451.2,876.1 451.2,876.1 	"/>
	<path d="M908.4,409.4L908.4,409.4h147.9c7.5,0,13.5-6,13.5-13.5c0-7.5-6-13.5-13.5-13.5H908.4c-7.5,0-13.5,6-13.5,13.5
		C894.9,403.3,900.9,409.4,908.4,409.4z"/>
</g>
</svg>
