<?xml version="1.0" encoding="UTF-8"?>
<svg width="1200pt" height="1200pt" version="1.1" viewBox="0 0 1200 1200" xmlns="http://www.w3.org/2000/svg">
 <path d="m124.04 218.87c6.8281-0.55078 12.781-4.8711 15.383-11.184l10.512-24.926 10.512 24.926c2.6055 6.3125 8.5547 10.633 15.383 11.184l26.977 2.2695-20.48 17.664c-5.1953 4.4531-7.4766 11.438-5.8555 18.098l6.0703 26.328-23.074-14.016c-5.8438-3.5273-13.211-3.5273-19.066 0l-23.074 14.016 6.168-26.328c1.5234-6.6602-0.75781-13.645-5.8555-18.098l-20.473-17.664zm-38.879 40.465-12.348 52.871c-1.957 8.0898 1.1875 16.488 7.9062 21.383 6.7188 4.8594 15.707 5.2578 22.859 0.9375l46.367-28.117 46.477 28.117c3.2539 1.9922 6.9375 2.9883 10.621 2.9883 4.332 0 8.5547-1.3086 12.133-3.9258 6.7188-4.8945 9.8516-13.285 8.0156-21.406l-12.457-52.848 41.172-35.461c6.2891-5.4258 8.6641-14.062 6.0703-21.984-2.6055-7.8945-9.5391-13.453-17.879-14.172l-54.059-4.5234-21.012-50.051c-3.2539-7.668-10.727-12.613-19.066-12.613s-15.707 4.9453-18.961 12.613l-21.023 50.051-54.18 4.5234c-8.2305 0.70703-15.277 6.2656-17.867 14.172-2.4961 7.9336-0.10938 16.559 6.168 21.984zm253.27-98.305c6.8281-0.57422 12.781-4.8945 15.492-11.184l10.402-24.926 10.512 24.926c2.7109 6.2891 8.5547 10.609 15.383 11.184l26.977 2.2578-20.473 17.664c-5.1953 4.4766-7.4766 11.461-5.9648 18.098l6.2891 26.328-23.184-13.992c-5.8555-3.5625-13.105-3.5625-19.066 0l-23.074 13.992 6.168-26.328c1.5117-6.6367-0.75781-13.621-5.8438-18.098l-20.473-17.664zm-38.895 40.465-41.051-35.461c-6.2891-5.4492-8.7734-14.074-6.1797-21.984 2.6055-7.9219 9.6484-13.477 17.879-14.172l54.168-4.5469 21.012-50.051c3.2539-7.6328 10.621-12.613 18.961-12.613 8.3398 0 15.816 4.9688 19.066 12.613l21.023 50.051 54.059 4.5469c8.3398 0.68359 15.383 6.2539 17.879 14.172 2.6055 7.9062 0.21484 16.535-6.0586 21.984l-41.172 35.461 12.457 52.848c1.8477 8.0898-1.2969 16.488-8.0156 21.383-3.5742 2.6172-7.8008 3.9492-12.023 3.9492-3.793 0-7.4766-1.0078-10.727-2.9883l-46.477-28.141-46.367 28.117c-7.1523 4.3203-16.141 3.9375-22.859-0.9375-6.7188-4.8945-9.8633-13.297-7.9062-21.383zm25.68 219.92c-5.1953 4.4531-7.4766 11.438-5.8438 18.098l6.168 26.316-23.184-14.004c-2.9297-1.7656-6.1797-2.6406-9.4336-2.6406-3.3594 0-6.6133 0.875-9.5391 2.6406l-23.184 14.004 6.168-26.316c1.6211-6.6602-0.64844-13.645-5.8438-18.098l-20.473-17.664 26.977-2.2578c6.8281-0.57422 12.672-4.8828 15.383-11.207l10.512-24.926 10.402 24.926c2.7109 6.3242 8.6641 10.633 15.383 11.207l26.977 2.2578zm79.73-36.91c2.4961 7.9219 0.10938 16.535-6.168 21.984l-41.051 35.484 12.348 52.824c1.9453 8.1133-1.1875 16.488-7.9062 21.383-3.6836 2.6406-7.9062 3.9492-12.133 3.9492-3.6836 0-7.3672-0.99609-10.727-2.9883l-46.367-28.117-46.477 28.117c-7.1523 4.3203-16.141 3.9258-22.754-0.97266-6.8281-4.8945-9.8633-13.273-8.0156-21.359l12.348-52.848-41.062-35.484c-6.2891-5.4258-8.6641-14.062-6.0586-21.984 2.4844-7.8945 9.5391-13.453 17.879-14.172l54.059-4.5234 21.012-50.051c3.2539-7.6562 10.727-12.613 18.961-12.613h0.10938c8.2305 0 15.707 4.9453 18.961 12.613l21.023 50.051 54.047 4.5234c8.3359 0.73047 15.367 6.2891 17.973 14.184zm198.13-113.3 91.211 52.645-91.211 52.668zm-22.418 144.16c4.4414 2.543 9.3125 3.8164 14.305 3.8164 4.9805 0 9.9727-1.2852 14.41-3.8398l115.48-66.648c8.7734-5.1016 14.293-14.605 14.293-24.828 0-10.211-5.5195-19.727-14.293-24.828l-115.48-66.625c-8.8789-5.125-19.824-5.125-28.703-0.023438-8.8789 5.1016-14.305 14.605-14.305 24.828v133.31c-0.011719 10.211 5.4023 19.742 14.293 24.84zm57.086-231.28c-77.137 0-139.75 62.699-139.75 139.77 0 77.09 62.617 139.77 139.75 139.77 77.016 0 139.74-62.688 139.74-139.77 0.011718-77.051-62.711-139.77-139.74-139.77zm0 316.29c97.285 0 176.47-79.176 176.47-176.52 0-97.32-79.188-176.52-176.47-176.52-97.391 0-176.58 79.199-176.58 176.52-0.003906 97.344 79.184 176.52 176.58 176.52zm-408.41 153.89c0-12.613 10.297-22.812 22.859-22.812s22.754 10.199 22.754 22.812c0 12.613-10.176 22.812-22.754 22.812-12.562-0.003906-22.859-10.203-22.859-22.812zm-178.31 164.94v-39.277l113.75-66.539 27.516 35.027-28.598 18.238c-8.5547 5.4727-11.051 16.836-5.6289 25.379 3.4688 5.4844 9.4219 8.4961 15.492 8.4961 3.4688 0 6.8281-0.9375 9.8516-2.8906l113.1-72.215 74.531 62.16v31.621zm320-228.9h-320v147.05l109.09-63.781c7.9062-4.6445 18.098-2.7109 23.723 4.5234l39.539 50.461 64.68-41.316c6.7188-4.3203 15.492-3.7695 21.66 1.3672l61.32 51.133v-149.43zm36.734 247.27v-265.66c0-10.129-8.2305-18.371-18.422-18.371h-356.73c-10.078 0-18.312 8.2422-18.312 18.371v265.66c0 10.129 8.2305 18.383 18.312 18.383h356.73c10.188 0.003907 18.422-8.2422 18.422-18.383zm708.8-149.42c0 10.152-8.2305 18.371-18.312 18.371h-195.86c-10.188 0-18.422-8.2188-18.422-18.371s8.2305-18.383 18.422-18.383h195.86c10.082 0 18.312 8.2305 18.312 18.383zm0-69.926c0 10.152-8.2305 18.383-18.312 18.383l-195.86 0.003906c-10.188 0-18.422-8.2188-18.422-18.383 0-10.129 8.2305-18.371 18.422-18.371h195.86c10.082-0.003906 18.312 8.2422 18.312 18.367zm0-69.887c0 10.152-8.2305 18.371-18.312 18.371h-195.86c-10.188 0-18.422-8.2188-18.422-18.371s8.2305-18.371 18.422-18.371h195.86c10.082-0.011719 18.312 8.2188 18.312 18.371zm-232.58-69.926c0-10.152 8.2305-18.371 18.422-18.371h120.79c10.176 0 18.422 8.2188 18.422 18.371s-8.2305 18.371-18.422 18.371l-120.81 0.003906c-10.176 0-18.406-8.2227-18.406-18.375zm232.58 279.65c0 10.129-8.2305 18.371-18.312 18.371l-195.86 0.003906c-10.188 0-18.422-8.2422-18.422-18.371 0-10.152 8.2305-18.371 18.422-18.371h195.86c10.082-0.003906 18.312 8.2148 18.312 18.367zm30.016 61.141c1.2969 0 2.375-1.0547 2.375-2.3164v-315.06h-51.996c-17.449 0-31.523-14.125-31.523-31.488v-53.062h-211.46c-1.1875 0-2.2695 1.0547-2.2695 2.3164v397.3c0 1.2617 1.0781 2.3164 2.2695 2.3164zm-44.426-375.95 21.875 21.828h-21.875zm71.605 19.551-70.309-70.309c-7.9062-7.8359-17.867-11.965-28.922-11.965h-220.56c-21.551 0-39 17.52-39 39.07v397.3c0 21.539 17.449 39.07 39 39.07h292.61c21.551 0 39.109-17.531 39.109-39.07l-0.003907-325.18c-0.011718-11.074-4.1289-21.094-11.926-28.918zm-824.39 637.79c9.4219-135.52 122.73-242.89 260.64-242.89 137.9 0 251.11 107.38 260.53 242.89zm127.82-412.38c0-73.199 59.578-132.76 132.82-132.76 73.223 0 132.71 59.555 132.71 132.76 0 73.199-59.473 132.73-132.71 132.73-73.234 0.003906-132.82-59.52-132.82-132.73zm219.48 145.6c49.5-29.605 82.871-83.797 82.871-145.6 0-93.48-76.043-169.51-169.54-169.51-93.492 0-169.54 76.031-169.54 169.51 0 61.812 33.254 115.99 82.871 145.6-122.2 37.211-211.36 150.96-211.36 285.17 0 10.152 8.2305 18.371 18.312 18.371h559.31c10.188 0 18.422-8.2188 18.422-18.371-0.003907-134.21-89.164-247.96-211.36-285.17z" fill-rule="evenodd"/>
</svg>
