<?xml version="1.0" encoding="UTF-8"?>
<svg width="1200pt" height="1200pt" version="1.1" viewBox="0 0 1200 1200" xmlns="http://www.w3.org/2000/svg">
 <path d="m1029.3 1092.8h-39.562v-570c0-54.938-44.672-99.609-99.656-99.609h-34.781v-31.828c0-7.3594-5.9531-13.312-13.312-13.312h-39.141v-124.13c0-0.375-0.1875-0.70312-0.23438-1.0781-0.09375-0.9375-0.28125-1.7812-0.5625-2.6719-0.23438-0.79687-0.46875-1.5938-0.89062-2.2969-0.375-0.75-0.84375-1.3594-1.3594-2.0625-0.5625-0.75-1.1719-1.4062-1.875-2.0156-0.28125-0.23437-0.42188-0.5625-0.75-0.79687l-216-153.24c-17.297-12.281-40.5-12.281-57.797 0l-216.05 153.24c-0.32812 0.23437-0.46875 0.5625-0.75 0.79687-0.70312 0.60938-1.3125 1.2656-1.875 2.0156-0.51562 0.65625-0.98438 1.3125-1.3594 2.0625s-0.60938 1.5-0.89062 2.2969c-0.28125 0.89063-0.46875 1.7344-0.5625 2.6719-0.046875 0.375-0.23438 0.70312-0.23438 1.0781v582.47h-25.922c-7.3594 0-13.312 5.9531-13.312 13.312v243.1h-91.781c-7.3594 0-13.312 5.9531-13.312 13.312s5.9531 13.312 13.312 13.312l858.66 0.046875c7.3594 0 13.312-5.9531 13.312-13.312 0-7.4062-5.9531-13.359-13.312-13.359zm-226.5-688.18h25.828v133.78h-25.828zm-264-293.16c8.0625-5.7188 18.891-5.7188 26.906 0l181.92 129.05h-390.71zm72.094 492.61v-34.5h72.703v34.5zm72.703 26.672v34.5h-72.703v-34.5zm-72.703-87.844v-34.5h72.703v34.5zm0-61.172v-34.5h72.703v34.5zm0-61.172v-34.5h72.703v34.5zm0-61.172v-34.5h72.703v34.5zm0-61.172v-31.031h72.703v31.031zm-282.47-31.031h255.79v447.66c0 7.3594 5.9531 13.312 13.312 13.312 7.3594 0 13.312-5.9531 13.312-13.312v-22.922h72.703v22.922c0 7.3594 5.9531 13.312 13.312 13.312 7.3594 0 13.312-5.9531 13.312-13.312l0.046876-447.66h65.906v569.16h-447.71zm352.87 595.82-99.281 100.88c-15.797 16.078-43.688 16.078-59.531 0l-99.281-100.88zm-343.5 229.78h-48.656v-229.78h48.656zm402.28 0h-375.61v-229.78h21.328l117.7 119.58c12.984 13.172 30.281 20.438 48.797 20.438 18.469 0 35.812-7.2656 48.75-20.438l117.7-119.58h21.328zm75.328 0h-48.656v-229.78h48.656zm77.531 0h-50.859v-243.14c0-7.3594-5.9531-13.312-13.312-13.312h-25.922l-0.046875-271.22h39.141c7.3594 0 13.312-5.9531 13.312-13.312v-31.828h34.781c1.5938 0 2.8594 1.2656 2.8594 2.8594zm70.125 0h-43.453v-570c0-16.266-13.266-29.484-29.531-29.484h-34.781v-43.453h34.781c40.219 0 72.984 32.719 72.984 72.938z"/>
</svg>
