<?xml version="1.0" encoding="UTF-8"?>
<svg width="1200pt" height="1200pt" version="1.1" viewBox="0 0 1200 1200" xmlns="http://www.w3.org/2000/svg">
 <path d="m785.23 64.957c-17.543-17.637-41.414-27.523-66.293-27.457h-475.18c-24.855 0.027344-48.684 9.9141-66.262 27.488-17.574 17.578-27.461 41.406-27.488 66.262v937.5c0.027344 24.855 9.9141 48.684 27.488 66.262 17.578 17.574 41.406 27.461 66.262 27.488h712.5c24.855-0.027344 48.684-9.9141 66.262-27.488 17.574-17.578 27.461-41.406 27.488-66.262v-700.18c0.066406-24.879-9.8203-48.75-27.457-66.293zm227.27 1003.8c-0.015625 14.914-5.9492 29.211-16.492 39.758-10.547 10.543-24.844 16.477-39.758 16.492h-712.5c-14.914-0.015625-29.211-5.9492-39.758-16.492-10.543-10.547-16.477-24.844-16.492-39.758v-937.5c0.015625-14.914 5.9492-29.211 16.492-39.758 10.547-10.543 24.844-16.477 39.758-16.492h475.18c4.1445 0.003906 8.2734 0.46094 12.316 1.3633v186.14c0.027344 24.855 9.9141 48.684 27.488 66.262 17.578 17.574 41.406 27.461 66.262 27.488h112.5v-37.5h-112.5c-14.914-0.015625-29.211-5.9492-39.758-16.492-10.543-10.547-16.477-24.844-16.492-39.758v-160.98l227.27 227.27c10.582 10.523 16.516 24.848 16.477 39.773z"/>
 <path d="m468.75 150h206.25v37.5h-206.25z"/>
 <path d="m356.25 150h56.25v37.5h-56.25z"/>
 <path d="m412.5 262.5h262.5v37.5h-262.5z"/>
 <path d="m262.5 262.5h93.75v37.5h-93.75z"/>
 <path d="m562.5 375h112.5v37.5h-112.5z"/>
 <path d="m375 375h131.25v37.5h-131.25z"/>
 <path d="m262.5 375h56.25v37.5h-56.25z"/>
 <path d="m342.01 668.45 112.5 131.25 28.473-24.402-102.04-119.05 102.04-119.05-28.473-24.406-112.5 131.25c-2.9102 3.3984-4.5117 7.7266-4.5117 12.203s1.6016 8.8047 4.5117 12.203z"/>
 <path d="m725.76 800.76 131.25-131.25c3.5156-3.5156 5.4922-8.2852 5.4922-13.258s-1.9766-9.7422-5.4922-13.258l-131.25-131.25-26.52 26.52 118 117.99-117.99 117.99z"/>
 <path d="m526.2 799.67 112.5-300 35.109 13.168-112.5 300z"/>
 <path d="m806.25 900h112.5v37.5h-112.5z"/>
 <path d="m468.75 900h281.25v37.5h-281.25z"/>
 <path d="m281.25 900h131.25v37.5h-131.25z"/>
 <path d="m675 1012.5h243.75v37.5h-243.75z"/>
 <path d="m431.25 1012.5h187.5v37.5h-187.5z"/>
 <path d="m281.25 1012.5h93.75v37.5h-93.75z"/>
</svg>
