<?xml version="1.0" encoding="utf-8"?>
<!-- Generator: Adobe Illustrator 27.8.1, SVG Export Plug-In . SVG Version: 6.00 Build 0)  -->
<svg version="1.1" id="Layer_1" xmlns="http://www.w3.org/2000/svg" xmlns:xlink="http://www.w3.org/1999/xlink" x="0px" y="0px"
	 viewBox="0 0 1200 1200" style="enable-background:new 0 0 1200 1200;" xml:space="preserve">
<style type="text/css">
	.st0{fill:#FFFFFF;}
</style>
<g>
	<path class="st0" d="M742.7,688.2c0-73.2-59.5-132.8-132.7-132.8c-73.2,0-132.8,59.6-132.8,132.8c0,73.2,59.6,132.7,132.8,132.7
		C683.3,820.9,742.7,761.4,742.7,688.2z"/>
	<path class="st0" d="M610,857.7c-137.9,0-251.2,107.4-260.6,242.9h521.2C861.1,965.1,747.9,857.7,610,857.7z"/>
	<polygon class="st0" points="1102.2,443.2 1102.2,465.1 1124,465.1 	"/>
	<path class="st0" d="M183.8,678.1l39.5,50.5l64.7-41.3c6.7-4.3,15.5-3.8,21.7,1.4l61.3,51.1V590.3l0,0H51v147l109.1-63.8
		C168,668.9,178.2,670.9,183.8,678.1z M252.2,631.4c12.6,0,22.8,10.2,22.8,22.8c0,12.6-10.2,22.8-22.8,22.8
		c-12.6,0-22.9-10.2-22.9-22.8C229.3,641.6,239.6,631.4,252.2,631.4z"/>
	<path class="st0" d="M337.9,199l-6.2,26.3l23.1-14c6-3.6,13.2-3.6,19.1,0l23.2,14l-6.3-26.3c-1.5-6.6,0.8-13.6,6-18.1l20.5-17.7
		l-27-2.3c-6.8-0.6-12.7-4.9-15.4-11.2l-10.5-24.9l-10.4,24.9c-2.7,6.3-8.7,10.6-15.5,11.2l-26.9,2.3l20.5,17.7
		C337.1,185.4,339.4,192.4,337.9,199z"/>
	<path class="st0" d="M123.5,256.9l-6.2,26.3l23.1-14c5.9-3.5,13.2-3.5,19.1,0l23.1,14l-6.1-26.3c-1.6-6.7,0.7-13.6,5.9-18.1
		l20.5-17.7l-27-2.3c-6.8-0.6-12.8-4.9-15.4-11.2l-10.5-24.9l-10.5,24.9c-2.6,6.3-8.6,10.6-15.4,11.2l-26.9,2.3l20.5,17.7
		C122.8,243.2,125,250.2,123.5,256.9z"/>
	<path class="st0" d="M183.4,797.6c-3,2-6.4,2.9-9.9,2.9c-6.1,0-12-3-15.5-8.5c-5.4-8.5-2.9-19.9,5.6-25.4l28.6-18.2l-27.5-35
		L51,779.9v39.3l320,0v-31.6l-74.5-62.2L183.4,797.6z"/>
	<path class="st0" d="M303.3,390.3l-10.4-24.9l-10.5,24.9c-2.7,6.3-8.6,10.6-15.4,11.2l-27,2.3l20.5,17.7c5.2,4.5,7.5,11.4,5.8,18.1
		l-6.2,26.3l23.2-14c2.9-1.8,6.2-2.6,9.5-2.6c3.3,0,6.5,0.9,9.4,2.6l23.2,14l-6.2-26.3c-1.6-6.7,0.6-13.6,5.8-18.1l20.5-17.7
		l-27-2.3C312,400.9,306,396.6,303.3,390.3z"/>
	<polygon class="st0" points="603.1,271.2 603.1,376.5 694.3,323.8 	"/>
	<path class="st0" d="M1065.4,470.3v-53.1H854c-1.2,0-2.3,1.1-2.3,2.3v397.3c0,1.3,1.1,2.3,2.3,2.3l292.6,0c1.3,0,2.4-1.1,2.4-2.3
		V501.8h-52C1079.5,501.8,1065.4,487.7,1065.4,470.3z M884,478.4c0-10.2,8.2-18.4,18.4-18.4h120.8c10.2,0,18.4,8.2,18.4,18.4
		c0,10.2-8.2,18.4-18.4,18.4l-120.8,0C892.2,496.8,884,488.6,884,478.4L884,478.4z M1116.6,758.1c0,10.1-8.2,18.4-18.3,18.4
		l-195.9,0c-10.2,0-18.4-8.2-18.4-18.4c0-10.2,8.2-18.4,18.4-18.4h195.9C1108.3,739.7,1116.6,747.9,1116.6,758.1L1116.6,758.1z
		 M1098.3,706.5H902.4c-10.2,0-18.4-8.2-18.4-18.4s8.2-18.4,18.4-18.4h195.9c10.1,0,18.3,8.2,18.3,18.4
		C1116.6,698.3,1108.3,706.5,1098.3,706.5z M1116.6,618.2c0,10.2-8.2,18.4-18.3,18.4l-195.9,0c-10.2,0-18.4-8.2-18.4-18.4
		c0-10.1,8.2-18.4,18.4-18.4h195.9C1108.3,599.8,1116.6,608.1,1116.6,618.2L1116.6,618.2z M1116.6,548.3c0,10.2-8.2,18.4-18.3,18.4
		H902.4c-10.2,0-18.4-8.2-18.4-18.4s8.2-18.4,18.4-18.4h195.9C1108.3,529.9,1116.6,538.2,1116.6,548.3z"/>
	<path class="st0" d="M637.8,463.6c77,0,139.7-62.7,139.7-139.8c0-77.1-62.7-139.8-139.7-139.8c-77.1,0-139.8,62.7-139.8,139.8
		C498,400.9,560.6,463.6,637.8,463.6z M566.4,257.2c0-10.2,5.4-19.7,14.3-24.8c8.9-5.1,19.8-5.1,28.7,0L724.9,299
		c8.8,5.1,14.3,14.6,14.3,24.8c0,10.2-5.5,19.7-14.3,24.8l-115.5,66.6c-4.4,2.6-9.4,3.8-14.4,3.8c-5,0-9.9-1.3-14.3-3.8v0
		c-8.9-5.1-14.3-14.6-14.3-24.8V257.2z"/>
	<path d="M258.5,166l41.1,35.5l-12.3,52.8c-2,8.1,1.2,16.5,7.9,21.4c6.7,4.9,15.7,5.3,22.9,0.9l46.4-28.1l46.5,28.1
		c3.3,2,6.9,3,10.7,3c4.2,0,8.4-1.3,12-3.9c6.7-4.9,9.9-13.3,8-21.4l-12.5-52.8l41.2-35.5c6.3-5.4,8.7-14.1,6.1-22
		c-2.5-7.9-9.5-13.5-17.9-14.2l-54.1-4.5l-21-50.1c-3.2-7.6-10.7-12.6-19.1-12.6c-8.3,0-15.7,5-19,12.6l-21,50.1l-54.2,4.5
		c-8.2,0.7-15.3,6.2-17.9,14.2C249.7,151.9,252.2,160.6,258.5,166z M338.4,161c6.8-0.6,12.8-4.9,15.5-11.2l10.4-24.9l10.5,24.9
		c2.7,6.3,8.6,10.6,15.4,11.2l27,2.3l-20.5,17.7c-5.2,4.5-7.5,11.5-6,18.1l6.3,26.3l-23.2-14c-5.9-3.6-13.1-3.6-19.1,0l-23.1,14
		l6.2-26.3c1.5-6.6-0.8-13.6-5.8-18.1l-20.5-17.7L338.4,161z"/>
	<path d="M405,384.5L405,384.5c-2.6-7.9-9.6-13.5-18-14.2l-54-4.5l-21-50.1c-3.3-7.7-10.7-12.6-19-12.6h-0.1c-8.2,0-15.7,5-19,12.6
		l-21,50.1l-54.1,4.5c-8.3,0.7-15.4,6.3-17.9,14.2c-2.6,7.9-0.2,16.6,6.1,22l41.1,35.5l-12.3,52.8c-1.8,8.1,1.2,16.5,8,21.4
		c6.6,4.9,15.6,5.3,22.8,1L293,489l46.4,28.1c3.4,2,7,3,10.7,3c4.2,0,8.4-1.3,12.1-3.9c6.7-4.9,9.9-13.3,7.9-21.4L357.7,442
		l41.1-35.5C405.1,401,407.5,392.4,405,384.5z M325.2,421.4c-5.2,4.5-7.5,11.4-5.8,18.1l6.2,26.3l-23.2-14c-2.9-1.8-6.2-2.6-9.4-2.6
		c-3.4,0-6.6,0.9-9.5,2.6l-23.2,14l6.2-26.3c1.6-6.7-0.6-13.6-5.8-18.1l-20.5-17.7l27-2.3c6.8-0.6,12.7-4.9,15.4-11.2l10.5-24.9
		l10.4,24.9c2.7,6.3,8.7,10.6,15.4,11.2l27,2.3L325.2,421.4z"/>
	<path d="M637.8,500.4L637.8,500.4c97.3,0,176.5-79.2,176.5-176.5c0-97.3-79.2-176.5-176.5-176.5c-97.4,0-176.6,79.2-176.6,176.5
		C461.2,421.2,540.4,500.4,637.8,500.4z M637.8,184.1c77,0,139.8,62.7,139.7,139.8c0,77.1-62.7,139.8-139.7,139.8
		c-77.1,0-139.8-62.7-139.8-139.8C498,246.8,560.6,184.1,637.8,184.1z"/>
	<path d="M580.7,415.4L580.7,415.4c4.4,2.5,9.3,3.8,14.3,3.8c5,0,10-1.3,14.4-3.8l115.5-66.6c8.8-5.1,14.3-14.6,14.3-24.8
		c0-10.2-5.5-19.7-14.3-24.8l-115.5-66.6c-8.9-5.1-19.8-5.1-28.7,0c-8.9,5.1-14.3,14.6-14.3,24.8v133.3
		C566.4,400.7,571.8,410.3,580.7,415.4z M603.1,271.2l91.2,52.6l-91.2,52.7V271.2z"/>
	<path d="M1173.8,462.8l-70.3-70.3c-7.9-7.8-17.9-12-28.9-12H854c-21.6,0-39,17.5-39,39.1v397.3c0,21.5,17.4,39.1,39,39.1h292.6
		c21.6,0,39.1-17.5,39.1-39.1l0-325.2C1185.7,480.6,1181.6,470.6,1173.8,462.8z M1102.2,443.2l21.9,21.8h-21.9V443.2z M1149,816.9
		c0,1.3-1.1,2.3-2.4,2.3l-292.6,0c-1.2,0-2.3-1.1-2.3-2.3V419.6c0-1.3,1.1-2.3,2.3-2.3h211.5v53.1c0,17.4,14.1,31.5,31.5,31.5h52
		V816.9z"/>
	<path d="M1098.3,669.8H902.4c-10.2,0-18.4,8.2-18.4,18.4s8.2,18.4,18.4,18.4h195.9c10.1,0,18.3-8.2,18.3-18.4
		C1116.6,678,1108.3,669.8,1098.3,669.8z"/>
	<path d="M1098.3,599.8H902.4c-10.2,0-18.4,8.2-18.4,18.4c0,10.2,8.2,18.4,18.4,18.4l195.9,0c10.1,0,18.3-8.2,18.3-18.4v0
		C1116.6,608.1,1108.3,599.8,1098.3,599.8z"/>
	<path d="M884,548.3c0,10.2,8.2,18.4,18.4,18.4h195.9c10.1,0,18.3-8.2,18.3-18.4c0-10.2-8.2-18.4-18.3-18.4H902.4
		C892.2,530,884,538.2,884,548.3z"/>
	<path d="M1098.3,739.7H902.4c-10.2,0-18.4,8.2-18.4,18.4c0,10.1,8.2,18.4,18.4,18.4l195.9,0c10.1,0,18.3-8.2,18.3-18.4v0
		C1116.6,747.9,1108.3,739.7,1098.3,739.7z"/>
	<path d="M252.2,677.1c12.6,0,22.8-10.2,22.8-22.8c0-12.6-10.2-22.8-22.8-22.8s-22.9,10.2-22.9,22.8
		C229.3,666.9,239.6,677.1,252.2,677.1z"/>
	<path d="M902.4,496.8l120.8,0c10.2,0,18.4-8.2,18.4-18.4c0-10.2-8.2-18.4-18.4-18.4H902.4c-10.2,0-18.4,8.2-18.4,18.4h0
		C884,488.6,892.2,496.8,902.4,496.8z"/>
	<path d="M44.1,223.9l41.1,35.5l-12.3,52.9c-2,8.1,1.2,16.5,7.9,21.4c6.7,4.9,15.7,5.3,22.9,0.9l46.4-28.1l46.5,28.1
		c3.3,2,6.9,3,10.6,3c4.3,0,8.6-1.3,12.1-3.9c6.7-4.9,9.9-13.3,8-21.4l-12.5-52.8l41.2-35.5c6.3-5.4,8.7-14.1,6.1-22
		c-2.6-7.9-9.5-13.5-17.9-14.2l-54.1-4.5l-21-50.1c-3.3-7.7-10.7-12.6-19.1-12.6s-15.7,4.9-19,12.6l-21,50.1l-54.2,4.5
		c-8.2,0.7-15.3,6.3-17.9,14.2C35.4,209.8,37.8,218.4,44.1,223.9z M124.1,218.9c6.8-0.6,12.8-4.9,15.4-11.2l10.5-24.9l10.5,24.9
		c2.6,6.3,8.6,10.6,15.4,11.2l27,2.3l-20.5,17.7c-5.2,4.5-7.5,11.4-5.9,18.1l6.1,26.3l-23.1-14c-5.8-3.5-13.2-3.5-19.1,0l-23.1,14
		l6.2-26.3c1.5-6.7-0.8-13.6-5.9-18.1l-20.5-17.7L124.1,218.9z"/>
	<path d="M407.8,837.6V571.9c0-10.1-8.2-18.4-18.4-18.4H32.6c-10.1,0-18.3,8.2-18.3,18.4v265.7c0,10.1,8.2,18.4,18.3,18.4h356.7
		C399.5,855.9,407.8,847.7,407.8,837.6z M51,590.3h320l0,0v149.4l-61.3-51.1c-6.2-5.1-14.9-5.7-21.7-1.4l-64.7,41.3l-39.5-50.5
		c-5.6-7.2-15.8-9.2-23.7-4.5L51,737.3V590.3z M371.1,819.2l-320,0v-39.3l113.8-66.5l27.5,35l-28.6,18.2
		c-8.6,5.5-11.1,16.8-5.6,25.4c3.5,5.5,9.4,8.5,15.5,8.5c3.5,0,6.8-0.9,9.9-2.9l113.1-72.2l74.5,62.2V819.2z"/>
	<path d="M696.7,833.8L696.7,833.8c49.5-29.6,82.9-83.8,82.9-145.6c0-93.5-76-169.5-169.5-169.5c-93.5,0-169.5,76-169.5,169.5
		c0,61.8,33.3,116,82.9,145.6C401.1,871,312,984.8,312,1119c0,10.2,8.2,18.4,18.3,18.4h559.3c10.2,0,18.4-8.2,18.4-18.4
		C908,984.8,818.9,871,696.7,833.8z M477.2,688.2c0-73.2,59.6-132.8,132.8-132.8c73.2,0,132.7,59.6,132.7,132.8
		c0,73.2-59.5,132.7-132.7,132.7C536.8,820.9,477.2,761.4,477.2,688.2z M349.4,1100.6c9.4-135.5,122.7-242.9,260.6-242.9
		c137.9,0,251.1,107.4,260.5,242.9H349.4z"/>
</g>
</svg>
