<?xml version="1.0" encoding="UTF-8"?>
<svg width="1200pt" height="1200pt" version="1.1" viewBox="0 0 1200 1200" xmlns="http://www.w3.org/2000/svg">
 <path d="m843.37 732-123.37 114.94c-30.375 28.125-77.812 26.297-105.94-4.0781l-46.453-49.547-39 36c42 63.656 120.98 91.875 193.87 69.375 72.844-22.547 122.11-90.422 120.89-166.69zm115.31-106.78c5.5781 14.766 10.031 30 13.312 45.469 1.4531 6.5625 7.3125 11.25 14.062 11.25h48.703c3.6562 0 7.1719 1.5 9.7031 4.1719s3.8906 6.2344 3.75 9.8906v78c0 7.4062-6.0469 13.453-13.453 13.453h-48.703c-7.0781 0-13.078 5.0625-14.297 12-3.7969 17.953-9.2812 35.578-16.312 52.547-7.125 17.297-15.844 33.891-26.062 49.547-3.7031 5.7188-2.9062 13.219 1.9219 18l34.547 34.453c5.2031 5.2969 5.2031 13.781 0 19.078l-55.547 55.547c-5.25 5.1562-13.688 5.1562-18.938 0l-34.547-34.547h-0.046875c-5.0625-5.0625-13.125-5.5781-18.844-1.2188-15.188 9.8906-31.266 18.375-48 25.453-17.25 7.125-35.109 12.703-53.391 16.547-6.6094 1.4062-11.344 7.2656-11.25 14.062v48.703c0 7.4531-6.0469 13.453-13.453 13.453h-79.312c-7.4062-0.046875-13.406-6.0469-13.453-13.453v-48.562c0-7.0781-5.0625-13.078-12-14.297-17.953-3.7969-35.484-9.2812-52.453-16.312-17.25-7.1719-33.844-15.891-49.547-26.062-5.6719-3.75-13.172-3-18 1.8281l-34.688 34.547c-5.2969 5.1562-13.781 5.1562-19.078 0l-55.547-55.547c-3.6562-3.7031-4.875-9.1875-3.1406-14.062 12.562-2.8125 24.141-9.0469 33.375-18l99.469-92.062v0.046875c34.5 49.406 89.484 80.719 149.63 85.125 60.141 4.4062 119.06-18.516 160.4-62.438 41.344-43.875 60.703-104.06 52.734-163.82l88.453-81.938zm-165.37-49.219c-51.094-38.953-117.75-51.047-179.26-32.578-61.5 18.516-110.44 65.391-131.53 126.05l-127.92 117.98h-45.844c-7.4062 0-13.453-6.0469-13.453-13.453v-78c0-7.4062 6.0469-13.453 13.453-13.453h48.703c7.0312 0 13.078-5.0625 14.297-12 3.7969-17.953 9.2812-35.578 16.312-52.547 7.125-17.25 15.844-33.797 26.062-49.453 3.75-5.6719 3-13.172-1.8281-18l-34.547-34.547c-5.1562-5.25-5.1562-13.688 0-18.938l55.547-55.547v-0.046875c5.2969-5.1562 13.781-5.1562 19.078 0l34.453 34.547v0.046875c5.1094 5.0625 13.219 5.5781 18.938 1.1719 31.125-20.109 65.672-34.312 101.91-42 6.8438-1.2188 11.859-7.0781 12-14.016v-49.219c0-7.4062 6-13.453 13.453-13.453h78.469c7.1719 0.32812 12.844 6.2812 12.844 13.453v48c0 7.0312 5.0625 13.078 12 14.297 36.281 7.7344 70.875 22.078 102 42.328 5.6719 3.75 13.219 2.9531 18-1.9219l15.844-15.844 21.234 23.062zm-120.71 111.23 99.234-91.922c-70.406-50.531-167.44-40.641-226.22 23.062 28.453-10.547 60.422-2.9062 81 19.312l45.938 49.547zm251.39-193.55c5.4844-5.625 5.4844-14.578 0-20.156l-45.234-48.844c-4.1719-4.5-5.1562-11.062-2.4844-16.594 2.625-5.4844 8.3906-8.8125 14.484-8.3906l178.31 7.5469v0.046875c8.1562 0.42188 14.438 7.3125 14.156 15.469l-6.1406 178.31h0.046875c-0.23438 6.0469-4.0312 11.344-9.7031 13.453s-12 0.5625-16.125-3.8438l-45.141-48.703 0.046875-0.046875c-2.5781-2.8125-6.1875-4.4531-9.9844-4.6406-3.7969-0.14062-7.5 1.2188-10.312 3.8438l-31.219 28.922c-0.375 0.32812-0.75 0.65625-1.0781 1.0781l-108 99.609v-0.046875c-0.70312 0.51562-1.3594 1.125-1.9219 1.8281l-144 133.45v-0.046875c-18.797 17.297-48.047 16.172-65.484-2.4844l-55.688-60c-5.3906-5.7188-14.344-6.0938-20.156-0.84375l-169.82 157.55c-41.531 38.391-103.92-28.922-62.531-67.312l40.688-37.547 1.9219-1.7812 135.37-125.29 1.6875-1.5469 34.312-32.062c18.844-17.297 48.094-16.172 65.531 2.5312l55.688 60c5.3438 5.7188 14.391 6.0469 20.156 0.70312zm-613.22 159.61v-267.24c0-7.9688 6.4688-14.438 14.438-14.438h69.844l-131.06-165.32-132 165.71h69.844c7.9688 0 14.391 6.4688 14.391 14.391v354h50.156v-44.391c0.09375-23.297 18.938-42.188 42.234-42.234zm287.06-305.29v-70.781c0-7.875 6.2812-14.297 14.156-14.438h69.844l-131.06-165.32-130.78 165.32h69.844c7.875 0.14063 14.156 6.5625 14.156 14.438v166.78c27.047-15.703 56.156-27.469 86.531-35.062v-36.938c-0.046876-8.5781 2.625-16.969 7.5469-24zm-122.9 74.766v-131.16h-85.219 0.046874c-5.6719-0.046875-10.781-3.375-13.125-8.5781-2.2969-5.1562-1.3594-11.203 2.4375-15.422l160.92-202.22c2.7188-3.4688 6.8906-5.5312 11.344-5.5312 4.4062 0 8.625 2.0625 11.344 5.5312l160.78 202.55c3.375 4.3125 4.0312 10.172 1.6406 15.141-2.3438 4.9219-7.3125 8.1094-12.797 8.1562h-85.781v38.297c1.9688-0.14062 3.9844-0.14062 6 0h78.469c11.25 0 21.984 4.5 29.906 12.469s12.375 18.75 12.328 30v37.312c32.109 8.0156 62.859 20.766 91.219 37.828l9-9c-8.7188-13.688-9.0938-31.031-0.98438-45.047s23.297-22.406 39.469-21.703l178.31 7.5469h0.046875c23.812 1.0781 42.422 21.047 41.766 44.906l-6.1406 178.45c-0.60938 17.625-11.812 33.141-28.359 39.281-16.5 6.1406-35.109 1.7344-47.109-11.203l-36-38.297-13.781 12.703h-0.046875c6.6562 15.797 12.094 32.109 16.219 48.75h37.312c11.344-0.14062 22.266 4.2656 30.328 12.281 8.0156 7.9688 12.562 18.844 12.516 30.188v78c-0.1875 23.203-19.031 41.953-42.234 42h-37.312c-7.9219 32.156-20.531 62.953-37.453 91.453l26.391 26.391c8.0156 7.9219 12.516 18.75 12.516 30s-4.5 22.078-12.516 30l-55.453 55.547c-7.9219 7.9688-18.703 12.469-30 12.469-11.25 0-22.031-4.5-30-12.469l-26.391-26.391c-28.359 17.062-59.062 29.812-91.172 37.781v37.359c-0.28125 23.203-19.172 41.859-42.375 41.859h-78.469c-23.297-0.046875-42.188-18.938-42.234-42.234v-37.312c-32.109-8.0625-62.859-20.812-91.219-37.828l-26.391 26.391v0.046875c-7.9219 7.9688-18.75 12.469-30 12.469-11.297 0-22.078-4.5-30-12.469l-55.547-55.547v-0.046875c-9.1406-9.0938-13.547-21.891-12-34.688-51.938-12-87.469-81.844-38.766-126.94l17.625-15.844h-15.234c-23.297-0.046875-42.188-18.938-42.234-42.234v-5.2969h-64.594c-7.9219 0-14.391-6.4219-14.391-14.391v-353.63h-85.172c-5.6719-0.046875-10.828-3.375-13.125-8.5781-2.2969-5.1562-1.3594-11.203 2.4375-15.422l160.31-202.22c2.7656-3.4219 6.9375-5.4375 11.344-5.4375s8.5781 2.0156 11.344 5.4375l160.92 202.92c3.375 4.3125 4.0312 10.219 1.5938 15.141-2.3906 4.9688-7.4062 8.1094-12.891 8.1562h-85.219l0.046875 252.84h6.9375c8.0625-32.109 20.812-62.859 37.922-91.219l-26.391-26.391c-16.547-16.594-16.547-43.406 0-60l55.453-55.688c7.9219-8.0156 18.703-12.516 30-12.516 11.25 0 22.031 4.5 30 12.516z" fill-rule="evenodd"/>
</svg>
