<?xml version="1.0" encoding="utf-8"?>
<!-- Generator: Adobe Illustrator 27.8.1, SVG Export Plug-In . SVG Version: 6.00 Build 0)  -->
<svg version="1.1" id="Layer_1" xmlns="http://www.w3.org/2000/svg" xmlns:xlink="http://www.w3.org/1999/xlink" x="0px" y="0px"
	 viewBox="0 0 1200 1200" style="enable-background:new 0 0 1200 1200;" xml:space="preserve">
<style type="text/css">
	.st0{fill:#FFFFFF;}
</style>
<g>
	<path class="st0" d="M972,670.8c-3.3-15.5-7.7-30.7-13.3-45.5l0,0.9l-88.5,81.9c8,59.8-11.4,119.9-52.7,163.8
		c-41.3,43.9-100.3,66.8-160.4,62.4c-60.1-4.4-115.1-35.7-149.6-85.1v0L408,941.2c-9.2,9-20.8,15.2-33.4,18
		c-1.7,4.9-0.5,10.4,3.1,14.1l55.5,55.5c5.3,5.2,13.8,5.2,19.1,0l34.7-34.5c4.8-4.8,12.3-5.6,18-1.8c15.7,10.2,32.3,18.9,49.5,26.1
		c17,7,34.5,12.5,52.5,16.3c6.9,1.2,12,7.2,12,14.3v48.6c0,7.4,6,13.4,13.5,13.5h79.3c7.4,0,13.5-6,13.5-13.5V1049
		c-0.1-6.8,4.6-12.7,11.2-14.1c18.3-3.8,36.1-9.4,53.4-16.5c16.7-7.1,32.8-15.6,48-25.5c5.7-4.4,13.8-3.8,18.8,1.2h0l34.5,34.5
		c5.2,5.2,13.7,5.2,18.9,0l55.5-55.5c5.2-5.3,5.2-13.8,0-19.1l-34.5-34.5c-4.8-4.8-5.6-12.3-1.9-18c10.2-15.7,18.9-32.2,26.1-49.5
		c7-17,12.5-34.6,16.3-52.5c1.2-6.9,7.2-12,14.3-12h48.7c7.4,0,13.5-6,13.5-13.5v-78c0.1-3.7-1.2-7.2-3.8-9.9s-6-4.2-9.7-4.2H986
		C979.3,682,973.4,677.3,972,670.8z"/>
	<path class="st0" d="M482.5,669.5c21.1-60.7,70-107.5,131.5-126c61.5-18.5,128.2-6.4,179.3,32.6L893.5,482l-21.2-23.1l-15.8,15.8
		c-4.8,4.9-12.3,5.7-18,1.9c-31.1-20.2-65.7-34.6-102-42.3c-6.9-1.2-12-7.3-12-14.3v-48c0-7.2-5.7-13.1-12.8-13.5h-78.5
		c-7.5,0-13.5,6-13.5,13.5v49.2c-0.1,6.9-5.2,12.8-12,14c-36.2,7.7-70.8,21.9-101.9,42c-5.7,4.4-13.8,3.9-18.9-1.2v0l-34.5-34.5
		c-5.3-5.2-13.8-5.2-19.1,0v0l-55.5,55.5c-5.2,5.2-5.2,13.7,0,18.9l34.5,34.5c4.8,4.8,5.6,12.3,1.8,18
		c-10.2,15.7-18.9,32.2-26.1,49.5c-7,17-12.5,34.6-16.3,52.5c-1.2,6.9-7.3,12-14.3,12h-48.7c-7.4,0-13.5,6-13.5,13.5v78
		c0,7.4,6,13.5,13.5,13.5h45.8L482.5,669.5z"/>
	<path class="st0" d="M504,277.3v166.8c27-15.7,56.2-27.5,86.5-35.1v-36.9c0-8.6,2.6-17,7.5-24l-0.2,0v-70.8
		c0-7.9,6.3-14.3,14.2-14.4h69.8L550.7,97.5L420,262.9h69.8C497.7,263,504,269.4,504,277.3z"/>
	<path class="st0" d="M310.7,653.4V386.1c0-8,6.5-14.4,14.4-14.4H395L264,206.4L132,372.1h69.8c8,0,14.4,6.5,14.4,14.4v354h50.2
		v-44.4c0.1-23.3,18.9-42.2,42.2-42.2L310.7,653.4z"/>
	<path class="st0" d="M1069,407.4L1069,407.4l-178.3-7.6c-6.1-0.4-11.9,2.9-14.5,8.4c-2.7,5.5-1.7,12.1,2.5,16.6l45.2,48.8
		c5.5,5.6,5.5,14.5,0,20.2L681.3,717.9c-5.8,5.3-14.8,5-20.2-0.7l-55.7-60c-17.4-18.7-46.7-19.8-65.5-2.5l-34.3,32.1l-1.7,1.5
		L368.6,813.6l-1.9,1.8L326,852.9c-41.4,38.4,21,105.7,62.5,67.3l169.8-157.5c5.8-5.3,14.8-4.9,20.2,0.8l55.7,60
		c17.4,18.7,46.7,19.8,65.5,2.5v0l144-133.5c0.6-0.7,1.2-1.3,1.9-1.8v0l108-99.6c0.3-0.4,0.7-0.8,1.1-1.1l31.2-28.9
		c2.8-2.6,6.5-4,10.3-3.8c3.8,0.2,7.4,1.8,10,4.6l0,0l45.1,48.7c4.1,4.4,10.5,6,16.1,3.8s9.5-7.4,9.7-13.5h0l6.1-178.3
		C1083.5,414.7,1077.2,407.8,1069,407.4z"/>
	<polygon class="st0" points="843.3,732.1 843.3,732.1 843.3,732.1 	"/>
	<path d="M1070.3,379L1070.3,379l-178.4-7.5c-16.2-0.7-31.4,7.7-39.5,21.7c-8.1,14-7.7,31.4,1,45l-9,9
		c-28.4-17.1-59.1-29.8-91.2-37.8v-37.3c0-11.2-4.4-22-12.3-30s-18.7-12.5-29.9-12.5h-78.5c-2-0.1-4-0.1-6,0v-38.3h85.8
		c5.5,0,10.5-3.2,12.8-8.2c2.4-5,1.7-10.8-1.6-15.1L562.6,65.5c-2.7-3.5-6.9-5.5-11.3-5.5c-4.5,0-8.6,2.1-11.3,5.5L379,267.7
		c-3.8,4.2-4.7,10.3-2.4,15.4c2.3,5.2,7.5,8.5,13.1,8.6h85.2v131.2l-1.9-2.8c-8-8-18.8-12.5-30-12.5c-11.3,0-22.1,4.5-30,12.5
		l-55.5,55.7c-16.5,16.6-16.5,43.4,0,60l26.4,26.4c-17.1,28.4-29.9,59.1-37.9,91.2h-6.9l0-252.8h85.2c5.5,0,10.5-3.2,12.9-8.2
		c2.4-4.9,1.8-10.8-1.6-15.1L274.6,174.3c-2.8-3.4-6.9-5.4-11.3-5.4s-8.6,2-11.3,5.4L91.6,376.5c-3.8,4.2-4.7,10.3-2.4,15.4
		c2.3,5.2,7.5,8.5,13.1,8.6h85.2v353.6c0,8,6.5,14.4,14.4,14.4h64.6v5.3c0,23.3,18.9,42.2,42.2,42.2H324l-17.6,15.8
		c-48.7,45.1-13.2,114.9,38.8,126.9c-1.5,12.8,2.9,25.6,12,34.7v0l55.5,55.5c7.9,8,18.7,12.5,30,12.5c11.2,0,22.1-4.5,30-12.5v0
		l26.4-26.4c28.4,17,59.1,29.8,91.2,37.8v37.3c0,23.3,18.9,42.2,42.2,42.2H711c23.2,0,42.1-18.7,42.4-41.9v-37.4
		c32.1-8,62.8-20.7,91.2-37.8l26.4,26.4c8,8,18.8,12.5,30,12.5c11.3,0,22.1-4.5,30-12.5l55.5-55.5c8-7.9,12.5-18.8,12.5-30
		s-4.5-22.1-12.5-30L960,907.5c16.9-28.5,29.5-59.3,37.5-91.5h37.3c23.2,0,42-18.8,42.2-42v-78c0-11.3-4.5-22.2-12.5-30.2
		c-8.1-8-19-12.4-30.3-12.3h-37.3c-4.1-16.6-9.6-33-16.2-48.8h0l13.8-12.7l36,38.3c12,12.9,30.6,17.3,47.1,11.2
		c16.5-6.1,27.7-21.7,28.4-39.3l6.1-178.4C1112.7,400.1,1094.1,380.1,1070.3,379z M420,262.9L550.7,97.5l131.1,165.3H612
		c-7.9,0.1-14.2,6.6-14.2,14.4v70.8l0.2,0c-4.9,7-7.6,15.4-7.5,24V409c-30.4,7.6-59.5,19.4-86.5,35.1V277.3
		c0-7.9-6.3-14.3-14.2-14.4H420z M266.4,696.1v44.4h-50.2v-354c0-7.9-6.4-14.4-14.4-14.4H132l132-165.7L395,371.7h-69.8
		c-8,0-14.4,6.5-14.4,14.4v267.2l-2.2,0.5C285.3,653.9,266.4,672.8,266.4,696.1z M308.7,787.5c-7.4,0-13.5-6-13.5-13.5v-78
		c0-7.4,6-13.5,13.5-13.5h48.7c7,0,13.1-5.1,14.3-12c3.8-18,9.3-35.6,16.3-52.5c7.1-17.2,15.8-33.8,26.1-49.5c3.8-5.7,3-13.2-1.8-18
		l-34.5-34.5c-5.2-5.2-5.2-13.7,0-18.9l55.5-55.5v0c5.3-5.2,13.8-5.2,19.1,0l34.5,34.5v0c5.1,5.1,13.2,5.6,18.9,1.2
		c31.1-20.1,65.7-34.3,101.9-42c6.8-1.2,11.9-7.1,12-14v-49.2c0-7.4,6-13.5,13.5-13.5h78.5c7.2,0.3,12.8,6.3,12.8,13.5v48
		c0,7,5.1,13.1,12,14.3c36.3,7.7,70.9,22.1,102,42.3c5.7,3.8,13.2,3,18-1.9l15.8-15.8l21.2,23.1l-100.2,94.1
		c-51.1-39-117.8-51-179.3-32.6c-61.5,18.5-110.4,65.4-131.5,126l-127.9,118H308.7z M771.8,595.4l-99.2,91.9l0,0l-45.9-49.5
		c-20.6-22.2-52.5-29.9-81-19.3C604.4,554.7,701.4,544.9,771.8,595.4z M986,682h48.7c3.7,0,7.2,1.5,9.7,4.2s3.9,6.2,3.8,9.9v78
		c0,7.4-6,13.5-13.5,13.5H986c-7.1,0-13.1,5.1-14.3,12c-3.8,18-9.3,35.6-16.3,52.5c-7.1,17.3-15.8,33.9-26.1,49.5
		c-3.7,5.7-2.9,13.2,1.9,18l34.5,34.5c5.2,5.3,5.2,13.8,0,19.1l-55.5,55.5c-5.2,5.2-13.7,5.2-18.9,0l-34.5-34.5h0
		c-5.1-5.1-13.1-5.6-18.8-1.2c-15.2,9.9-31.3,18.4-48,25.5c-17.2,7.1-35.1,12.7-53.4,16.5c-6.6,1.4-11.3,7.3-11.2,14.1v48.7
		c0,7.5-6,13.5-13.5,13.5h-79.3c-7.4,0-13.4-6-13.5-13.5v-48.6c0-7.1-5.1-13.1-12-14.3c-18-3.8-35.5-9.3-52.5-16.3
		c-17.2-7.2-33.8-15.9-49.5-26.1c-5.7-3.8-13.2-3-18,1.8l-34.7,34.5c-5.3,5.2-13.8,5.2-19.1,0l-55.5-55.5c-3.7-3.7-4.9-9.2-3.1-14.1
		c12.6-2.8,24.1-9,33.4-18l99.5-92.1v0c34.5,49.4,89.5,80.7,149.6,85.1c60.1,4.4,119.1-18.5,160.4-62.4
		c41.3-43.9,60.7-104.1,52.7-163.8l88.5-81.9l0-0.9c5.6,14.8,10,30,13.3,45.5C973.4,677.3,979.3,682,986,682z M722.4,898.8
		c-72.9,22.5-151.9-5.7-193.9-69.4l39-36l46.5,49.5c28.1,30.4,75.6,32.2,105.9,4.1l123.4-114.9c0,0,0,0,0,0l0,0l0,0
		C844.6,808.3,795.3,876.2,722.4,898.8z M1077,601.1L1077,601.1c-0.2,6-4,11.3-9.7,13.5s-12,0.6-16.1-3.8l-45.1-48.7l0,0
		c-2.6-2.8-6.2-4.5-10-4.6c-3.8-0.1-7.5,1.2-10.3,3.8l-31.2,28.9c-0.4,0.3-0.8,0.7-1.1,1.1l-108,99.6v0c-0.7,0.5-1.4,1.1-1.9,1.8
		L699.7,826v0c-18.8,17.3-48,16.2-65.5-2.5l-55.7-60c-5.4-5.7-14.3-6.1-20.2-0.8L388.5,920.2c-41.5,38.4-103.9-28.9-62.5-67.3
		l40.7-37.5l1.9-1.8L504,688.3l1.7-1.5l34.3-32.1c18.8-17.3,48.1-16.2,65.5,2.5l55.7,60c5.3,5.7,14.4,6,20.2,0.7L924,493.8
		c5.5-5.6,5.5-14.6,0-20.2l-45.2-48.8c-4.2-4.5-5.2-11.1-2.5-16.6c2.6-5.5,8.4-8.8,14.5-8.4l178.3,7.5v0c8.2,0.4,14.4,7.3,14.2,15.5
		L1077,601.1z"/>
</g>
</svg>
