<?xml version="1.0" encoding="UTF-8"?>
<svg width="1200pt" height="1200pt" version="1.1" viewBox="0 0 1200 1200" xmlns="http://www.w3.org/2000/svg">
 <path d="m553.4 727.5c-0.84375 0-1.6875-0.09375-2.5312-0.1875-33.516-2.4844-66.422-9.8438-97.828-21.797-4.1719 1.6875-8.1094 3.8438-11.766 6.5156-0.1875 0.14062-0.375 0.32812-0.5625 0.42188-1.4062 1.1719-2.1562 1.4062-2.1562 1.5938 0 4.6406 15.656 10.688 40.922 16.781v0.046875c39.562 8.4844 80.016 12.516 120.52 11.953 40.5 0.5625 80.906-3.4688 120.52-11.953 25.266-6.0938 40.922-12.234 40.922-16.781 0-0.046875-0.84375-0.5625-2.3438-1.7812v-0.046875c-4.1719-3-8.7188-5.4375-13.547-7.2188-35.203 12.047-71.812 19.547-108.89 22.266-0.79688 0.09375-1.5938 0.1875-2.4375 0.1875h-0.32812c-13.359 1.0781-27 1.6406-40.688 1.6406-13.219 0-26.531-0.5625-39.703-1.6406zm60.047-171c0.09375 3.6562-1.2656 7.1719-3.7969 9.7969s-6 4.0781-9.6562 4.0781-7.125-1.4531-9.6562-4.0781-3.9375-6.1406-3.7969-9.7969v-20.203c-36 0.1875-71.859 4.1719-107.06 11.859-25.266 6.0938-40.922 12.141-40.922 16.781s15.656 10.688 40.922 16.781c39.609 8.5312 80.016 12.516 120.52 11.953 40.5 0.5625 80.906-3.4688 120.52-11.953 25.266-6.0938 40.922-12.188 40.922-16.781 0-4.6406-15.656-10.688-40.922-16.781v-0.046875c-35.203-7.6406-71.062-11.625-107.11-11.812zm-26.906-47.156v-64.641c-0.14062-3.6562 1.2656-7.1719 3.7969-9.7969s6-4.0781 9.6562-4.0781 7.125 1.4531 9.6562 4.0781 3.8906 6.1406 3.7969 9.7969v64.641c38.156 0.28125 76.125 4.5 113.39 12.656 37.688 9.1875 61.172 24 61.547 42.422v106.31c0.046875 8.3906-4.4531 16.125-11.766 20.203l-0.75 0.375c7.5 5.2031 12.141 13.641 12.516 22.734v105.75c0 4.125-1.0781 8.1562-3.0938 11.719-1.6406 2.6719-3.75 5.0156-6.2344 6.9375 5.7656 5.0156 9.1406 12.234 9.3281 19.922v105.84-0.046875c0.046875 8.3906-4.4531 16.125-11.766 20.203-40.406 22.969-111.47 38.203-183.32 38.203-61.875 0-124.92-11.25-170.29-38.391-3.4688-2.0156-6.3281-4.9219-8.3438-8.3906-1.9688-3.5156-3.0469-7.5-3.0469-11.531v-105.89c0.1875-7.6406 3.5625-14.859 9.2812-19.922-2.5312-1.875-4.6406-4.3125-6.2344-7.0312-1.9688-3.5156-3.0469-7.4531-3.0469-11.484v-105.89c0.32812-8.9062 4.8281-17.203 12.094-22.359 0.14062-0.14062 0.23438-0.1875 0.32812-0.23438l-1.0312-0.65625v-0.046875c-7.0312-4.125-11.344-11.719-11.391-19.875v-106.36c0.375-18.516 23.859-33.328 61.547-42.516 37.266-8.1094 75.281-12.328 113.39-12.609zm422.72 231.28c0-7.4531 6-13.453 13.453-13.453 7.4062 0 13.453 6 13.453 13.453v132c0 7.4531-6.0469 13.5-13.5 13.5h-182.44c-7.4062 0-13.453-6-13.453-13.453 0-7.4062 6.0469-13.453 13.453-13.453h169.03zm-845.34 0c0-7.4531 6.0469-13.5 13.5-13.5s13.5 6.0469 13.5 13.5v118.64l168.84-0.046875c7.4062 0 13.453 6.0469 13.453 13.453 0 7.4531-6.0469 13.453-13.453 13.453h-182.39c-7.4531 0-13.5-6.0469-13.5-13.5zm741.05-312.32c-7.2656-0.23438-13.078-6.2344-13.078-13.5 0-7.3125 5.8125-13.266 13.078-13.5h147.89c3.6562-0.09375 7.1719 1.2656 9.7969 3.7969s4.125 6.0469 4.125 9.7031-1.5 7.125-4.125 9.6562c-2.625 2.5781-6.1406 3.9375-9.7969 3.8438zm0-42.609v-0.046875c-7.4531 0-13.5-6.0469-13.5-13.5s6.0469-13.5 13.5-13.5h147.89c7.4531 0 13.5 6.0469 13.5 13.5s-6.0469 13.5-13.5 13.5zm0 255.79v-0.046875c-7.4531 0-13.5-6-13.5-13.453s6.0469-13.5 13.5-13.5h209.95c7.4531 0 13.453 6.0469 13.453 13.5s-6 13.453-13.453 13.453zm0-42.609v-0.046875c-7.4531 0-13.5-6.0469-13.5-13.5s6.0469-13.5 13.5-13.5h209.95c7.4531 0 13.453 6.0469 13.453 13.5s-6 13.5-13.453 13.5zm0-42.609v-0.09375c-7.2656-0.1875-13.078-6.1875-13.078-13.453 0-7.3125 5.8125-13.312 13.078-13.5h209.95c7.2656 0.1875 13.078 6.1875 13.078 13.5 0 7.2656-5.8125 13.266-13.078 13.453zm0-42.656v-0.046875c-7.4531 0-13.5-6.0469-13.5-13.5s6.0469-13.5 13.5-13.5h209.95c7.4531 0 13.453 6.0469 13.453 13.5s-6 13.5-13.453 13.5zm0-42.609v-0.09375c-7.4531 0-13.5-6.0469-13.5-13.5 0-7.4062 6.0469-13.453 13.5-13.453h209.95c7.4531 0 13.453 6.0469 13.453 13.453 0 7.4531-6 13.5-13.453 13.5zm238.31-64.875h-51.516c-3.6094 0-7.0312-1.4062-9.5625-3.8906-2.5312-2.5312-3.9375-5.9531-3.9375-9.5156v-51.516l-201.66-0.046875v318.24h266.68zm-38.016-48.422v21.469h20.297zm-232.69-43.5h222.56c4.2188-0.046875 8.1562 1.9219 10.688 5.25l60.609 64.031 0.1875 0.23438 0.23438 0.23438 0.1875 0.23438 0.14062 0.1875v0.09375l0.28125 0.375h0.046875l0.1875 0.23438v0.046875l0.14062 0.1875 0.046875 0.046875 0.14062 0.1875h0.046875l0.14062 0.1875 0.14062 0.23438 0.046875 0.14062v0.1875l0.14062 0.1875v0.046875l0.14062 0.1875v0.1875l0.09375 0.046875 0.046875 0.14062v0.70312l0.14062 0.1875v0.23438l0.046875 0.046875v0.375l0.046875 0.1875v0.5625h0.046875v0.9375l0.046875 0.14062v2.0156h0.046875l0.09375 270.94c0 6.0469-2.3906 11.859-6.7031 16.172-4.2656 4.2656-10.078 6.6562-16.172 6.6562h-273.84c-6.0469 0-11.812-2.3906-16.078-6.6562h-0.09375c-4.2656-4.2656-6.7031-10.078-6.75-16.125v-326.39c0.046875-6.0469 2.4844-11.812 6.75-16.078h0.09375c4.2188-4.3125 10.031-6.75 16.078-6.75zm-787.5 114.09c-3.6094 0.09375-7.1719-1.2656-9.7969-3.8438-2.625-2.5312-4.0781-6-4.0781-9.6562s1.4531-7.1719 4.0781-9.7031 6.1875-3.8906 9.7969-3.7969h147.89c3.6562-0.09375 7.1719 1.2656 9.7969 3.7969s4.125 6.0469 4.125 9.7031-1.5 7.125-4.125 9.6562c-2.625 2.5781-6.1406 3.9375-9.7969 3.8438zm0-42.609v-0.046875c-7.4531 0-13.453-6.0469-13.453-13.5s6-13.5 13.453-13.5h147.89c7.4531 0 13.5 6.0469 13.5 13.5s-6.0469 13.5-13.5 13.5zm0 255.79v-0.046874c-7.4531 0-13.453-6-13.453-13.453 0-7.4531 6-13.5 13.453-13.5h209.95c7.4531 0 13.5 6.0469 13.5 13.5 0 7.4531-6.0469 13.453-13.5 13.453zm0-42.609v-0.046876c-7.4531 0-13.453-6.0469-13.453-13.5 0-7.4531 6-13.5 13.453-13.5h209.95c7.4531 0 13.5 6.0469 13.5 13.5 0 7.4531-6.0469 13.5-13.5 13.5zm0-42.609v-0.09375c-7.2656-0.1875-13.078-6.1875-13.078-13.453 0-7.3125 5.8125-13.312 13.078-13.5h209.95c7.2656 0.1875 13.078 6.1875 13.078 13.5 0 7.2656-5.8125 13.266-13.078 13.453zm0-42.656v-0.046874c-7.4531 0-13.453-6.0469-13.453-13.5 0-7.4531 6-13.5 13.453-13.5h209.95c7.4531 0 13.5 6.0469 13.5 13.5 0 7.4531-6.0469 13.5-13.5 13.5zm0-42.609v-0.09375c-7.4531 0-13.453-6.0469-13.453-13.5 0-7.4062 6-13.453 13.453-13.453h209.95c7.4531 0 13.5 6.0469 13.5 13.453 0 7.4531-6.0469 13.5-13.5 13.5zm238.31-64.875h-51.562c-3.5625 0-6.9844-1.4062-9.5156-3.8906-2.5312-2.5312-3.9844-5.9531-3.9844-9.5156v-51.516l-201.61-0.046874v318.24h266.68zm-17.719-26.906-20.391-21.469v21.469zm-252.98-65.016h222.71c4.1719 0 8.1094 1.9688 10.688 5.25l60.609 64.031 0.23438 0.23438 0.375 0.46875 0.1875 0.1875v0.09375l0.1875 0.1875 0.14062 0.1875 0.14062 0.23437v0.23438l0.046875 0.046874 0.28125 0.375 0.14062 0.23438v0.28125h0.046875v0.28125l0.046875 0.1875v0.51562l0.09375 0.14063h0.046875v0.46875l0.046875 0.1875v0.51562l0.046875 0.14063v0.65625l0.046875 0.98437v0.375h0.046875v1.9688h0.046875l0.046875 270.74c0.375 5.8594-1.5469 11.672-5.3438 16.172-4.3125 4.2656-10.125 6.6562-16.172 6.6562h-274.74c-6.0469 0-11.859-2.3906-16.125-6.6562-4.3125-4.2656-6.75-10.078-6.75-16.125v-326.39c0-6.0469 2.4375-11.859 6.75-16.125 0.375-0.375 0.75-0.70312 1.125-1.0781v-0.046875c4.1719-3.6094 9.4688-5.625 15-5.625zm540-118.73h117.19c3.6094-0.046876 7.0312 1.3594 9.5625 3.8906s3.9375 5.9531 3.9375 9.5156v35.109h13.922c3.5625 0 6.9844 1.4062 9.5156 3.9375s3.9375 5.9531 3.9375 9.5156v147.1c0 3.5625-1.4062 6.9844-3.9375 9.5156s-5.9531 3.9375-9.5156 3.9375h-274.64c-3.5625 0-6.9844-1.4062-9.5156-3.9375s-3.9375-5.9531-3.9375-9.5156v-213.66c0-3.5625 1.4062-6.9844 3.9375-9.5156s5.9531-3.9375 9.5156-3.9375h112.17c5.2969 0 10.078 3.0938 12.281 7.875zm19.172 75.469c-5.2969 0-10.125-3.1406-12.281-7.9688l-21.75-39.047-4.6875-8.4844-6.1875-11.156h-90.797v186.74h247.69v-120.05zm84.609-48.562h-88.734l12.047 21.656 76.734-0.046876zm-98.812 427.78c7.4062 0.28125 13.219 6.4219 13.078 13.828-0.09375 3.5625-1.5938 6.9375-4.1719 9.4219-2.625 2.4375-6.0938 3.75-9.6562 3.6562-23.391-0.70312-46.734-2.5312-69.938-5.625-20.016-2.5312-39.844-6.5156-59.297-11.812-7.0312-2.1562-11.016-9.5156-9-16.547 2.0156-7.0781 9.2812-11.203 16.359-9.375 18.234 5.0156 36.75 8.7188 55.5 11.062 22.266 3 44.672 4.7812 67.125 5.3906zm163.82-54.188c-11.109 5.2031-22.688 9.1875-34.641 11.906-41.672 9.0469-84.188 13.312-126.84 12.797-42.656 0.51562-85.219-3.75-126.89-12.797-11.906-2.7188-23.484-6.7031-34.547-11.906v72.844c6.375 3.75 13.031 7.0312 19.828 9.9375h0.1875c30.234 12.188 62.203 19.547 94.688 21.844h81.188c36.047-2.4844 71.531-9.8906 105.52-22.078 0.51562-0.28125 1.0312-0.46875 1.5938-0.65625 6.7969-2.6719 13.453-5.7656 19.922-9.2344zm-161.48 359.16c7.2656 0.75 12.656 7.125 12.094 14.438-0.60938 7.3125-6.8906 12.797-14.203 12.422-12.047-0.9375-24.188-2.2969-36.328-3.8906s-23.812-3.4219-34.641-5.4844c-3.5625-0.5625-6.75-2.5781-8.8125-5.5312-2.0625-2.9531-2.8594-6.6562-2.1562-10.172 0.65625-3.5625 2.7188-6.7031 5.7188-8.7188 3-1.9688 6.6562-2.7188 10.219-1.9688 10.641 2.0156 21.703 3.7969 33.094 5.2969 10.875 1.4062 22.5 2.6719 34.969 3.6562zm-2.2969-155.86c7.4062 0.23438 13.266 6.4219 13.078 13.828-0.23438 7.4062-6.4219 13.266-13.828 13.031-23.391-0.70312-46.734-2.5312-69.938-5.625-20.016-2.5312-39.844-6.4688-59.297-11.812-7.0312-2.1562-11.016-9.5156-9-16.547 2.0156-7.0781 9.2812-11.203 16.359-9.3281 18.188 4.9688 36.75 8.6719 55.453 11.062 22.266 2.9531 44.672 4.7812 67.125 5.3906zm163.78-54.234v0.046875c-11.062 5.2031-22.641 9.1875-34.594 11.859-41.672 9.0469-84.234 13.312-126.89 12.797-42.656 0.51562-85.219-3.75-126.89-12.797-11.906-2.6719-23.484-6.6562-34.547-11.859v72.844c4.4531 2.625 9.1406 5.0625 14.062 7.3125 0.375 0.14062 0.75 0.32812 1.125 0.51562 44.25 18.141 91.734 26.859 139.55 25.641 51.938 0.79688 103.55-8.0625 152.26-26.109 0.5625-0.28125 1.125-0.51562 1.6875-0.70312 4.8281-2.0625 9.6094-4.3594 14.25-6.8906zm-313.74 107.39h0.046875c-2.8125 1.3594-5.4844 3.0938-7.8281 5.1562-0.89062 0.75-1.2656 0.5625-1.2656 0.84375 0 4.6406 15.656 10.734 40.922 16.875 39.609 8.4375 80.016 12.469 120.52 11.859 40.5 0.5625 80.906-3.4219 120.52-11.859 25.266-6.0938 40.922-12.234 40.922-16.875 0-0.1875-0.51562-0.14062-1.4531-0.9375v-0.046875c-2.625-2.25-5.5781-4.125-8.7188-5.5312-50.719 18.047-104.2 26.953-158.02 26.297-49.734 1.0312-99.188-7.7344-145.55-25.781zm-9.1406 37.031v72.797c40.781 23.672 98.016 33.469 154.69 33.469 66.328 0 131.11-13.312 168.19-33.656v-72.609c-11.062 5.1562-22.641 9.1406-34.594 11.906-41.672 9-84.234 13.312-126.89 12.797-42.656 0.51562-85.219-3.7969-126.89-12.797-11.906-2.7188-23.484-6.75-34.547-11.906z"/>
</svg>
